<svg width="46" height="45" viewBox="0 0 46 45" fill="none" xmlns="http://www.w3.org/2000/svg">
<path fill-rule="evenodd" clip-rule="evenodd" d="M4.44985 0.108279C4.15 0.224817 0.33577 3.97173 0.135537 4.34642C-0.395248 5.33989 0.735146 6.39424 1.75631 5.85827C1.90337 5.78107 2.38018 5.35956 2.8159 4.92164L3.60812 4.12534L3.65763 20.6249L3.70715 37.1245L3.92639 37.7638C4.45391 39.3018 5.5749 40.415 7.12358 40.9389L7.76726 41.1566L24.3918 41.1835L41.0164 41.2102L40.0629 42.1861C39.1387 43.1319 39.1093 43.1759 39.1093 43.6134C39.1093 44.1312 39.3117 44.4958 39.7133 44.702C40.0651 44.8828 40.4319 44.8833 40.773 44.7036C41.0938 44.5346 44.8841 40.7567 45.0405 40.4501C45.19 40.1568 45.1779 39.7735 45.009 39.4553C44.9314 39.3093 43.9622 38.2971 42.8551 37.2062C40.6313 35.0145 40.4805 34.9198 39.7583 35.2601C39.3241 35.4647 39.1093 35.8407 39.1093 36.3958C39.1093 36.784 39.1638 36.8629 40.0501 37.7589C40.5675 38.2818 40.9909 38.7403 40.9909 38.7776C40.9909 38.8968 8.67989 38.8585 8.11712 38.7388C7.39323 38.5846 6.75391 38.1147 6.3892 37.4687L6.0838 36.9278L6.05736 20.529C6.0428 11.5095 6.06419 4.13006 6.10499 4.13006C6.14579 4.13006 6.58676 4.53318 7.08496 5.02588C7.90322 5.83515 8.03334 5.92652 8.43203 5.97116C9.00351 6.03509 9.42072 5.82286 9.64462 5.35415C9.98715 4.63722 9.89179 4.48735 7.68507 2.27529C5.43933 0.0239978 5.15562 -0.166003 4.44985 0.108279ZM12.7002 0.19138C12.2961 0.436158 12.174 0.670217 12.174 1.20059C12.174 1.65867 12.3494 1.98852 12.6989 2.18698C12.8698 2.28414 15.9283 2.32122 26.929 2.35987C40.1562 2.40629 40.9613 2.41897 41.2986 2.58567C41.816 2.84156 42.2748 3.32158 42.5398 3.8842L42.7714 4.37592L42.7724 18.1244C42.7734 33.0196 42.7446 32.2154 43.29 32.5947C43.5743 32.7926 44.3491 32.7926 44.6334 32.5947C45.1788 32.2154 45.1501 33.0205 45.1485 18.1244C45.1469 3.01563 45.1744 3.7239 44.5459 2.55302C43.9128 1.37338 42.501 0.337421 41.2002 0.0978543C40.8612 0.0354058 35.6267 -0.000293218 26.8413 1.81436e-06C13.3261 0.000296847 13.0086 0.00462409 12.7002 0.19138ZM33.3979 8.49468C32.7911 8.69156 32.341 8.99623 31.8405 9.54912C31.2916 10.1553 30.9891 10.9213 30.9891 11.7047C30.9891 12.2068 31.0285 12.3332 31.2673 12.5988C31.4932 12.8497 31.6418 12.9171 32.0571 12.9567C32.5368 13.0026 32.5898 12.9846 32.9088 12.6678C33.165 12.4133 33.267 12.2101 33.3223 11.8442C33.4739 10.8398 34.4313 10.3809 35.1399 10.9731C35.4856 11.2621 35.646 11.7251 35.5359 12.1173C35.4948 12.2642 34.6243 13.2722 33.6016 14.3573C32.5789 15.4423 31.6621 16.4506 31.5644 16.5978C31.1658 17.1981 31.4315 18.1811 32.1023 18.5871C32.3999 18.7674 32.6046 18.7827 34.7323 18.783C37.3197 18.7833 37.4762 18.7502 37.7683 18.1389C38.0833 17.4797 37.7437 16.7166 37.0501 16.5254C36.8483 16.4697 36.2895 16.424 35.8084 16.4237L34.9335 16.4231L36.1659 15.1057C36.8437 14.3811 37.4957 13.5884 37.6147 13.3441C38.4491 11.6323 37.703 9.53103 35.96 8.68419C35.307 8.36693 34.0731 8.27566 33.3979 8.49468ZM13.8473 13.0091C13.655 13.1374 13.4601 13.3798 13.3926 13.5745C13.207 14.1097 13.2138 29.1947 13.3998 29.637C13.6044 30.1232 14.0008 30.388 14.5244 30.388C14.8952 30.388 15.0209 30.334 15.3032 30.0536L15.6399 29.7192V23.7283C15.6399 17.1679 15.6473 17.0747 16.217 16.4567C17.2994 15.2826 19.2362 15.5913 19.8433 17.0346C19.9767 17.3516 19.9971 18.1995 19.9971 23.4121C19.9971 30.0019 19.9857 29.8696 20.5833 30.2202C21.1133 30.531 21.9178 30.3569 22.1975 29.8707C22.2952 29.7007 22.3355 28.2335 22.3738 23.4547L22.4233 17.259L22.701 16.7897C23.0843 16.1422 23.6241 15.8062 24.3667 15.7529C25.4322 15.6763 26.3317 16.2533 26.616 17.1959C26.6977 17.4667 26.7309 19.2894 26.7309 23.5004C26.7309 28.7792 26.7486 29.4609 26.8929 29.7628C27.2792 30.5712 28.5441 30.5947 28.9574 29.8011C29.1801 29.3733 29.1824 17.6347 28.9599 16.7863C28.3818 14.5823 26.5623 13.2669 24.2711 13.3967C23.2587 13.4541 22.566 13.7174 21.717 14.3679L21.2011 14.7631L20.6139 14.3103C19.2718 13.2753 17.5356 13.0926 15.834 13.8072C15.7229 13.8539 15.6467 13.7756 15.5529 13.5177C15.3038 12.8337 14.4785 12.5876 13.8473 13.0091Z" fill="#F6B72A"/>
</svg>
