<svg viewBox="0 0 21 21" fill="none" xmlns="http://www.w3.org/2000/svg">
  <path d="M20.5684 3.79337L17.0127 0.237654C16.6957 -0.0792384 16.1802 -0.0791977 15.8632 0.237654L0.238055 15.8628C0.0845263 16.0164 0 16.2205 0 16.4376C0 16.6547 0.0845264 16.8588 0.238015 17.0123L3.79373 20.5681C3.95218 20.7265 4.16032 20.8057 4.36843 20.8057C4.57657 20.8057 4.78468 20.7265 4.94317 20.5681L16.2265 9.28466C16.3852 9.12597 16.3852 8.86865 16.2265 8.70996C16.0679 8.55127 15.8105 8.55127 15.6518 8.70996L4.36851 19.9933L0.812753 16.4376L1.58804 15.6623L2.54481 16.6191C2.62418 16.6984 2.72817 16.7381 2.83216 16.7381C2.93615 16.7381 3.04019 16.6984 3.11951 16.6191C3.2782 16.4604 3.2782 16.2031 3.11951 16.0443L2.16278 15.0876L2.93806 14.3123L3.32014 14.6943C3.3995 14.7737 3.5035 14.8134 3.60749 14.8134C3.71148 14.8134 3.81551 14.7737 3.89484 14.6943C4.05353 14.5357 4.05353 14.2783 3.89484 14.1196L3.51276 13.7375L4.28805 12.9622L5.24482 13.919C5.32419 13.9984 5.42818 14.038 5.53217 14.038C5.63616 14.038 5.74019 13.9984 5.81952 13.919C5.97821 13.7603 5.97821 13.503 5.81952 13.3443L4.86274 12.3875L5.63803 11.6122L6.02011 11.9943C6.09947 12.0737 6.20346 12.1133 6.30745 12.1133C6.41145 12.1133 6.51548 12.0737 6.5948 11.9943C6.75349 11.8356 6.75349 11.5783 6.5948 11.4196L6.21273 11.0375L6.98801 10.2622L7.94479 11.219C8.02415 11.2983 8.12814 11.338 8.23214 11.338C8.33613 11.338 8.44016 11.2983 8.51948 11.219C8.67817 11.0603 8.67817 10.803 8.51948 10.6442L7.56271 9.68746L8.338 8.91217L8.72007 9.29425C8.79944 9.37361 8.90343 9.41327 9.00742 9.41327C9.11141 9.41327 9.21545 9.37361 9.29477 9.29425C9.45346 9.13556 9.45346 8.87824 9.29477 8.71951L8.91269 8.33743L9.68798 7.56215L10.6448 8.51892C10.7241 8.59829 10.8281 8.63795 10.9321 8.63795C11.0361 8.63795 11.1401 8.59829 11.2195 8.51892C11.3781 8.36023 11.3781 8.10291 11.2195 7.94418L10.2627 6.98741L11.038 6.21212L11.42 6.5942C11.4994 6.67356 11.6034 6.71323 11.7074 6.71323C11.8114 6.71323 11.9154 6.67352 11.9947 6.5942C12.1534 6.43551 12.1535 6.17819 11.9947 6.0195L11.6127 5.63738L12.3879 4.8621L13.3447 5.81887C13.4241 5.89824 13.5281 5.9379 13.6321 5.9379C13.7361 5.9379 13.8401 5.89824 13.9194 5.81887C14.0781 5.66018 14.0781 5.40286 13.9194 5.24413L12.9626 4.28736L13.738 3.51232L14.12 3.89439C14.1994 3.97376 14.3034 4.01342 14.4074 4.01342C14.5114 4.01342 14.6154 3.97376 14.6947 3.89439C14.8534 3.7357 14.8534 3.47839 14.6947 3.31966L14.3127 2.93758L15.088 2.1623L16.0448 3.11907C16.1241 3.19843 16.2281 3.2381 16.3321 3.2381C16.4361 3.2381 16.5401 3.19839 16.6195 3.11907C16.7782 2.96038 16.7782 2.70306 16.6195 2.54437L15.6627 1.5876L16.438 0.812352L19.9937 4.36807L18.2381 6.12374C18.0794 6.28243 18.0794 6.53974 18.2381 6.69843C18.3968 6.85712 18.6541 6.85712 18.8128 6.69843L20.5684 4.94277C20.722 4.78924 20.8065 4.58515 20.8065 4.36803C20.8065 4.1509 20.7219 3.9469 20.5684 3.79337Z" fill="#F6B72A" />
  <path d="M17.2324 8.11047C17.4568 8.11047 17.6387 7.92853 17.6387 7.70409C17.6387 7.47965 17.4568 7.29771 17.2324 7.29771C17.0079 7.29771 16.826 7.47965 16.826 7.70409C16.826 7.92853 17.0079 8.11047 17.2324 8.11047Z" fill="#F6B72A" />
</svg>