<svg width="42" height="47" viewBox="0 0 42 47" fill="none" xmlns="http://www.w3.org/2000/svg">
<path fill-rule="evenodd" clip-rule="evenodd" d="M0.262183 0.204841L0 0.409584V2.95434C0 5.48665 0.00109442 5.50019 0.230243 5.71402C0.379295 5.85295 0.587847 5.92884 0.821175 5.92884C1.17032 5.92884 1.18356 5.94218 1.23778 6.3488C1.29062 6.74534 2.6881 24.0307 2.687 24.2745C2.68671 24.3374 2.88202 24.6273 3.12102 24.9186C4.76218 26.9194 5.97967 29.4731 6.57527 32.164C6.77686 33.0744 6.79955 33.5248 6.86343 37.8952C6.91308 41.2961 6.9686 42.7501 7.05954 43.0335C7.51466 44.4525 8.48757 45.4668 9.7749 45.8647C10.3352 46.0379 10.9584 46.0473 21.804 46.0473H33.2421L33.4766 45.8145C33.9113 45.3828 33.9381 43.3276 33.5298 41.7421C33.1764 40.3697 32.5159 39.4198 31.5976 38.9634C30.8131 38.5734 30.5004 38.2978 30.008 37.5623C29.7569 37.1873 29.5516 36.8508 29.5516 36.8146C29.5516 36.7784 29.7195 36.6797 29.9247 36.5953C30.6096 36.3136 32.0798 35.3979 32.8964 34.7443C34.3712 33.5642 35.5481 32.1111 36.4545 30.3513C37.1529 28.9953 37.5448 27.8192 37.7629 26.4249C37.8557 25.8314 37.9487 25.2507 37.9695 25.1346C37.9972 24.9795 38.1065 24.9051 38.3813 24.8544C39.4603 24.655 40.5121 23.8004 40.8343 22.8613C41.3622 21.3228 40.6197 19.627 39.1157 18.9364L38.6558 18.7253L27.3128 18.6973C21.0742 18.682 15.8679 18.6942 15.7434 18.7246C15.6189 18.7549 15.4286 18.8675 15.3205 18.9748C15.1374 19.1567 15.124 19.3106 15.124 21.245V23.3201H14.328H13.532V14.6245V5.92884H13.8848C14.1266 5.92884 14.3143 5.85256 14.4818 5.68625L14.726 5.44376V2.96442V0.485078L14.4818 0.242588L14.2376 0H7.38093C0.595012 0 0.52168 0.00207509 0.262183 0.204841ZM13.134 2.96442V4.34782H7.36302H1.592V2.96442V1.58102H7.36302H13.134V2.96442ZM11.94 14.6245V23.3201H8.05952H4.17901V23.0763C4.17901 22.7797 2.91138 6.9405 2.84023 6.3488L2.78979 5.92884H7.36491H11.94V14.6245ZM38.5498 20.456C39.0957 20.7246 39.3301 21.0752 39.3824 21.7015C39.4381 22.3692 39.1542 22.8667 38.5658 23.132C38.1767 23.3075 37.6743 23.3159 27.4372 23.3179L16.716 23.3201V21.7885V20.2569H27.4306C37.9708 20.2569 38.1519 20.2601 38.5498 20.456ZM9.66953 25.6315C9.87321 27.6781 10.7286 29.9858 11.9496 31.7828C14.0167 34.8249 17.2608 36.9271 20.9448 37.6115C22.4262 37.8868 25.4414 37.8642 26.8309 37.5675C27.3867 37.4488 27.8879 37.3517 27.9444 37.3517C28.0011 37.3517 28.1922 37.6215 28.3692 37.9513C28.816 38.7837 29.8056 39.8185 30.4616 40.1392C31.1208 40.4614 31.3814 40.7002 31.6562 41.2339C31.9677 41.839 32.1272 42.5169 32.2017 43.5523L32.2674 44.4663L21.4322 44.4657C14.0408 44.4654 10.4749 44.4316 10.2132 44.3595C9.69112 44.2155 9.02676 43.5819 8.74279 42.9571C8.50956 42.4442 8.50757 42.4084 8.45055 37.747C8.39732 33.3949 8.37692 32.9745 8.16927 31.9718C7.71425 29.7742 6.76671 27.4167 5.66435 25.7397C5.3946 25.3295 5.17401 24.9721 5.17401 24.9456C5.17401 24.919 6.17021 24.9093 7.38789 24.924L9.60177 24.9505L9.66953 25.6315ZM36.2952 25.6175C35.6713 30.8164 31.5829 35.0983 26.3178 36.0667C24.639 36.3756 21.9647 36.282 20.3177 35.8569C15.5329 34.622 11.8459 30.4513 11.2659 25.6175L11.18 24.9011H23.7806H36.3811L36.2952 25.6175ZM33.2378 26.0633C33.1189 26.1589 32.8955 26.5338 32.7414 26.8965C32.0567 28.5082 30.2901 30.4872 28.6124 31.5217C27.4555 32.235 27.1636 32.5123 27.1636 32.8975C27.1636 33.242 27.4343 33.5613 27.805 33.6537C28.2368 33.7613 30.0814 32.5934 31.4524 31.3445C32.8761 30.0476 34.4271 27.5967 34.4271 26.6439C34.4271 26.0285 33.714 25.6803 33.2378 26.0633Z" fill="#F6B72A"/>
</svg>
