<svg viewBox="0 0 25 25" fill="none" xmlns="http://www.w3.org/2000/svg">
  <path d="M23.4469 11.8159V9.09099C23.4468 8.99499 23.4087 8.90293 23.3408 8.83505C23.2729 8.76716 23.1808 8.729 23.0848 8.72894H22.7234V1.90795C22.7233 1.53056 22.6114 1.16167 22.4017 0.84791C22.192 0.534149 21.8939 0.289612 21.5453 0.145214C21.1966 0.000816783 20.8129 -0.0369564 20.4428 0.0366705C20.0727 0.110297 19.7327 0.292018 19.4658 0.558858L18.9641 1.06055C18.4598 0.680153 17.8351 0.494579 17.2049 0.537947C16.5747 0.581316 15.9814 0.850712 15.5339 1.29661C15.5003 1.33021 15.4736 1.37012 15.4554 1.41405C15.4372 1.45798 15.4278 1.50507 15.4278 1.55263C15.4278 1.60018 15.4372 1.64727 15.4554 1.6912C15.4736 1.73513 15.5003 1.77504 15.5339 1.80865L18.728 5.00254C18.7616 5.03618 18.8015 5.06287 18.8454 5.08108C18.8893 5.09929 18.9364 5.10866 18.984 5.10866C19.0315 5.10866 19.0786 5.09929 19.1225 5.08108C19.1664 5.06287 19.2063 5.03618 19.2399 5.00254C19.6859 4.5552 19.9554 3.9619 19.999 3.3317C20.0425 2.70151 19.857 2.07678 19.4768 1.57239L19.9785 1.07069C20.1441 0.905116 20.3551 0.792363 20.5847 0.746686C20.8144 0.70101 21.0525 0.724461 21.2689 0.814074C21.4852 0.903688 21.6702 1.05544 21.8003 1.25015C21.9304 1.44485 21.9999 1.67377 21.9999 1.90795V8.72977H21.6381C21.5421 8.72983 21.45 8.76799 21.3821 8.83587C21.3143 8.90376 21.2761 8.99582 21.276 9.09182V11.7925H15.86C15.7667 11.1838 15.4418 10.6346 14.9531 10.2598C14.4644 9.88507 13.8498 9.71363 13.2377 9.78137C13.1897 9.51537 13.0841 9.26306 12.9286 9.04202C12.773 8.82099 12.571 8.63654 12.3369 8.50155C12.1027 8.36655 11.8419 8.28425 11.5726 8.26039C11.3034 8.23653 11.0321 8.27168 10.7779 8.36338C10.499 7.8513 10.0583 7.44603 9.52468 7.2109C8.99108 6.97576 8.39462 6.924 7.8285 7.06371C7.26237 7.20341 6.75847 7.52671 6.39552 7.9831C6.03257 8.43948 5.83102 9.00323 5.82236 9.58628C5.24819 9.63497 4.70876 9.88163 4.29633 10.2841C3.88391 10.6865 3.62409 11.2197 3.56132 11.7925H1.39647C1.02624 11.7929 0.671295 11.9402 0.409501 12.202C0.147707 12.4638 0.000438017 12.8187 0 13.189V14.4057C5.48127e-05 14.5017 0.0382166 14.5937 0.106102 14.6616C0.173987 14.7295 0.266044 14.7677 0.362048 14.7677H1.22952L2.82253 20.9949C2.90329 21.3112 3.06815 21.5998 3.29962 21.83C3.53109 22.0602 3.82054 22.2234 4.13728 22.3024L3.72641 24.1563C3.71474 24.2093 3.71509 24.2641 3.72744 24.3169C3.73978 24.3696 3.7638 24.4189 3.79772 24.4612C3.83165 24.5034 3.87462 24.5375 3.92346 24.5609C3.97231 24.5844 4.0258 24.5966 4.07998 24.5966H5.39431C5.45979 24.5966 5.52404 24.5789 5.58022 24.5452C5.6364 24.5116 5.68241 24.4634 5.71333 24.4056L6.81168 22.3575H17.7849L18.883 24.4056C18.914 24.4634 18.96 24.5116 19.0162 24.5452C19.0724 24.5788 19.1367 24.5966 19.2022 24.5966H20.5166C20.5707 24.5966 20.6242 24.5844 20.6731 24.5609C20.7219 24.5375 20.7649 24.5034 20.7988 24.4612C20.8327 24.4189 20.8568 24.3696 20.8691 24.3169C20.8814 24.2641 20.8818 24.2093 20.8701 24.1563L20.4593 22.3024C20.776 22.2234 21.0654 22.0602 21.2969 21.83C21.5284 21.5998 21.6932 21.3112 21.774 20.9949L23.366 14.7677H24.2337C24.3297 14.7677 24.4217 14.7295 24.4896 14.6616C24.5575 14.5937 24.5957 14.5017 24.5957 14.4057V13.189C24.5952 12.8618 24.4799 12.5452 24.27 12.2943C24.0601 12.0434 23.7688 11.8741 23.4469 11.8159ZM18.9595 4.21037L16.3261 1.57694C16.6912 1.33122 17.1303 1.22005 17.5683 1.26244C18.0063 1.30484 18.416 1.49817 18.7271 1.80933C19.0383 2.1205 19.2316 2.53016 19.274 2.96817C19.3164 3.40618 19.2053 3.84531 18.9595 4.21037ZM21.9993 9.45387H22.7234V11.7917H21.9993V9.45387ZM6.0278 10.3021C6.07848 10.3021 6.12855 10.3058 6.1782 10.31C6.23248 10.3149 6.28717 10.3074 6.33809 10.2879C6.38901 10.2685 6.43481 10.2377 6.47198 10.1978C6.50933 10.1582 6.53728 10.1106 6.55375 10.0587C6.57023 10.0068 6.5748 9.95178 6.56714 9.89784C6.49925 9.42867 6.60793 8.951 6.87214 8.55738C7.13634 8.16377 7.53725 7.88225 7.99718 7.76736C8.45711 7.65248 8.94331 7.71241 9.36157 7.93555C9.77983 8.15869 10.1004 8.52915 10.2611 8.97514C10.2796 9.02619 10.3094 9.07243 10.3482 9.11042C10.387 9.14841 10.4338 9.17718 10.4853 9.19461C10.5367 9.21203 10.5914 9.21766 10.6453 9.21108C10.6992 9.20449 10.751 9.18587 10.7967 9.15658C10.9682 9.04675 11.1661 8.98511 11.3696 8.97814C11.5731 8.97117 11.7748 9.01911 11.9534 9.11694C12.132 9.21478 12.281 9.35889 12.3847 9.53415C12.4884 9.70941 12.543 9.90936 12.5428 10.113C12.5428 10.137 12.5407 10.1606 12.5385 10.1945C12.5341 10.2534 12.5442 10.3124 12.5679 10.3665C12.5916 10.4206 12.6281 10.468 12.6743 10.5048C12.7205 10.5415 12.775 10.5663 12.8331 10.5772C12.8911 10.588 12.9509 10.5845 13.0073 10.5669C13.2269 10.4988 13.4582 10.477 13.6867 10.5027C13.9152 10.5285 14.1359 10.6012 14.3349 10.7165C14.5338 10.8318 14.7068 10.987 14.8428 11.1724C14.9788 11.3578 15.0749 11.5693 15.1251 11.7937H4.29245C4.35608 11.3786 4.56618 11 4.88474 10.7263C5.2033 10.4526 5.60928 10.302 6.02924 10.3017L6.0278 10.3021ZM5.17688 23.8715H4.53016L4.86593 22.3556H5.98932L5.17688 23.8715ZM19.4188 23.8715L18.6064 22.3556H19.7296L20.0655 23.8715H19.4188ZM21.0727 20.8145C21.0129 21.0483 20.877 21.2555 20.6865 21.4034C20.4959 21.5513 20.2615 21.6316 20.0202 21.6315H4.57546C4.3342 21.6316 4.09978 21.5514 3.90921 21.4034C3.71863 21.2555 3.58276 21.0483 3.52304 20.8145L1.97699 14.7677H22.6185L21.0727 20.8145ZM23.8716 14.0436H0.724097V13.189C0.724316 13.0107 0.795225 12.8398 0.921273 12.7138C1.04732 12.5877 1.21821 12.5168 1.39647 12.5166H23.1992C23.3775 12.5168 23.5484 12.5877 23.6744 12.7138C23.8005 12.8398 23.8714 13.0107 23.8716 13.189V14.0436Z" fill="#F6B72A" />
  <path d="M16.1271 3.89825L15.883 4.14237C15.8209 4.21128 15.7876 4.30138 15.79 4.3941C15.7924 4.48682 15.8303 4.57508 15.8959 4.64068C15.9614 4.70628 16.0497 4.74421 16.1424 4.74665C16.2351 4.74909 16.3252 4.71585 16.3942 4.65379L16.6385 4.40967C16.701 4.34081 16.7346 4.25054 16.7324 4.15757C16.7302 4.06459 16.6922 3.97605 16.6265 3.91029C16.5607 3.84452 16.4721 3.80659 16.3792 3.80435C16.2862 3.80211 16.1959 3.83573 16.1271 3.89825Z" fill="#F6B72A" />
  <path d="M14.9685 5.93005C15.0161 5.93011 15.0632 5.92076 15.1072 5.90255C15.1511 5.88434 15.1911 5.85761 15.2246 5.82392L15.4688 5.57979C15.5367 5.51189 15.5748 5.4198 15.5748 5.32377C15.5748 5.22775 15.5367 5.13566 15.4688 5.06775C15.4009 4.99985 15.3088 4.96171 15.2128 4.96171C15.1167 4.96171 15.0246 4.99985 14.9567 5.06775L14.7124 5.31209C14.6618 5.36273 14.6273 5.42724 14.6134 5.49747C14.5994 5.5677 14.6066 5.64048 14.634 5.70662C14.6615 5.77277 14.7079 5.82929 14.7674 5.86906C14.8269 5.90883 14.8969 5.93006 14.9685 5.93005Z" fill="#F6B72A" />
  <path d="M13.7864 6.23807L13.5423 6.4824C13.5077 6.5158 13.4801 6.55576 13.4611 6.59993C13.4422 6.64411 13.4322 6.69162 13.4318 6.73969C13.4314 6.78776 13.4406 6.83544 13.4588 6.87993C13.477 6.92442 13.5039 6.96484 13.5379 6.99882C13.5719 7.03281 13.6123 7.05969 13.6568 7.07788C13.7013 7.09608 13.749 7.10523 13.797 7.1048C13.8451 7.10437 13.8926 7.09437 13.9368 7.07539C13.981 7.05641 14.0209 7.02882 14.0543 6.99423L14.2984 6.75011C14.332 6.71649 14.3587 6.67657 14.3769 6.63264C14.3951 6.58872 14.4045 6.54163 14.4045 6.49409C14.4045 6.44654 14.3951 6.39946 14.3769 6.35553C14.3587 6.3116 14.332 6.27169 14.2984 6.23807C14.2648 6.20445 14.2249 6.17778 14.181 6.15958C14.137 6.14139 14.0899 6.13202 14.0424 6.13202C13.9949 6.13202 13.9478 6.14139 13.9038 6.15958C13.8599 6.17778 13.82 6.20445 13.7864 6.23807Z" fill="#F6B72A" />
  <path d="M17.267 5.88103C17.325 5.88109 17.3821 5.86723 17.4336 5.84062C17.485 5.81402 17.5294 5.77545 17.5629 5.72815L17.7623 5.44616C17.7906 5.4074 17.811 5.36338 17.8222 5.31667C17.8334 5.26996 17.8351 5.22149 17.8274 5.17408C17.8197 5.12668 17.8026 5.08129 17.7771 5.04056C17.7517 4.99982 17.7184 4.96456 17.6792 4.93682C17.64 4.90909 17.5956 4.88943 17.5487 4.87899C17.5019 4.86856 17.4534 4.86756 17.4061 4.87605C17.3588 4.88454 17.3137 4.90235 17.2734 4.92845C17.2331 4.95454 17.1983 4.9884 17.1712 5.02805L16.9716 5.31003C16.9332 5.3642 16.9105 5.42787 16.9059 5.49409C16.9013 5.56031 16.915 5.62652 16.9455 5.68547C16.976 5.74442 17.0221 5.79385 17.0788 5.82834C17.1355 5.86284 17.2006 5.88106 17.267 5.88103Z" fill="#F6B72A" />
  <path d="M16.2152 6.37922L16.0158 6.661C15.9883 6.69981 15.9688 6.74365 15.9582 6.79002C15.9477 6.83638 15.9464 6.88437 15.9544 6.93123C15.9706 7.02588 16.0238 7.11022 16.1021 7.16569C16.1805 7.22117 16.2777 7.24323 16.3724 7.22703C16.467 7.21083 16.5514 7.1577 16.6068 7.07932L16.8063 6.79733C16.8599 6.7189 16.8806 6.62252 16.8638 6.52899C16.847 6.43546 16.7941 6.35229 16.7165 6.29741C16.6389 6.24254 16.5429 6.22036 16.4491 6.23567C16.3553 6.25097 16.2713 6.30253 16.2152 6.37922Z" fill="#F6B72A" />
  <path d="M15.0178 3.63136C15.0926 3.63143 15.1656 3.60822 15.2267 3.56495L15.5085 3.36551C15.5847 3.30925 15.6358 3.22539 15.6508 3.1319C15.6659 3.03841 15.6437 2.94274 15.5891 2.86539C15.5345 2.78805 15.4517 2.73519 15.3585 2.71815C15.2654 2.70111 15.1693 2.72124 15.0908 2.77423L14.8088 2.97367C14.746 3.01806 14.699 3.08128 14.6745 3.15418C14.6501 3.22708 14.6495 3.30587 14.6728 3.37913C14.6961 3.4524 14.7422 3.51634 14.8043 3.56169C14.8664 3.60704 14.9409 3.63144 15.0178 3.63136Z" fill="#F6B72A" />
  <path d="M13.6668 4.58736C13.7416 4.5874 13.8145 4.5642 13.8756 4.52095L14.1575 4.3213C14.1963 4.29384 14.2294 4.259 14.2547 4.21877C14.2801 4.17854 14.2972 4.13371 14.3053 4.08685C14.3133 4.03998 14.312 3.99199 14.3015 3.94563C14.2909 3.89926 14.2714 3.85542 14.2439 3.81661C14.2164 3.7778 14.1816 3.74478 14.1414 3.71943C14.1011 3.69409 14.0563 3.67692 14.0095 3.6689C13.9626 3.66088 13.9146 3.66216 13.8682 3.67269C13.8219 3.68321 13.778 3.70277 13.7392 3.73023L13.4572 3.92967C13.3944 3.97407 13.3474 4.03731 13.323 4.11023C13.2985 4.18315 13.2979 4.26196 13.3213 4.33523C13.3446 4.40851 13.3907 4.47245 13.4528 4.51778C13.5149 4.56311 13.5899 4.58748 13.6668 4.58736Z" fill="#F6B72A" />
</svg>