<svg width="51" height="47" viewBox="0 0 51 47" fill="none" xmlns="http://www.w3.org/2000/svg">
<path fill-rule="evenodd" clip-rule="evenodd" d="M8.35606 0.15447C6.42483 0.618064 4.62957 2.07159 3.75407 3.88024C3.03107 5.37399 3.05742 4.97471 3.05742 14.4417V22.9254L2.57713 23.4831C1.23066 25.0469 0.381703 26.9467 0.0866027 29.0563C0.0120352 29.5896 -0.0137118 32.0315 0.00678681 36.6341L0.0370891 43.425L0.410025 44.1743C0.840496 45.039 1.47179 45.6641 2.34521 46.0901C2.85857 46.3404 3.00602 46.3649 3.99817 46.3649C4.97428 46.3649 5.14669 46.3374 5.65717 46.0998C6.46058 45.7259 7.25349 44.9479 7.63465 44.1595C7.91796 43.5733 7.95124 43.405 7.99015 42.3574L8.03323 41.2019H25.3385H42.6438L42.6869 42.3574C42.7258 43.405 42.7591 43.5733 43.0424 44.1595C43.4235 44.9479 44.2165 45.7259 45.0199 46.0998C45.5303 46.3374 45.7027 46.3649 46.6789 46.3649C47.671 46.3649 47.8185 46.3404 48.3318 46.0901C49.2052 45.6641 49.8365 45.039 50.267 44.1743L50.6399 43.425L50.6689 36.5849C50.6928 30.8912 50.6729 29.5882 50.5496 28.8105C50.2193 26.727 49.2851 24.7596 47.9234 23.2801L47.4216 22.7348V14.3804C47.4216 6.34209 47.414 5.9967 47.2229 5.24821C46.6979 3.19183 45.3375 1.54329 43.4223 0.642158C41.9549 -0.0482177 43.1828 -0.00524126 25.1836 0.00380641C11.3681 0.0107888 8.8611 0.0332113 8.35606 0.15447ZM41.7838 2.12106C42.0796 2.20819 42.5442 2.39141 42.8162 2.5282C43.4356 2.83976 44.5164 3.91751 44.8696 4.57602C45.4469 5.65181 45.441 5.55927 45.441 13.6861C45.441 17.7856 45.429 21.1396 45.4144 21.1396C45.3997 21.1396 45.0329 20.9626 44.5993 20.7463C44.1657 20.5299 43.7543 20.3529 43.6852 20.3529C43.5881 20.3529 43.5595 19.9319 43.5595 18.5024C43.5595 16.3636 43.4703 15.7581 43.0081 14.7631C42.6163 13.9191 41.5518 12.7983 40.7298 12.364C39.6823 11.8105 39.5189 11.7969 33.9015 11.7969C28.2353 11.7969 28.2681 11.794 27.0979 12.4091C26.7857 12.5734 26.2623 12.9712 25.935 13.2934L25.3397 13.8791L24.7575 13.3009C24.128 12.6757 23.3253 12.2023 22.4735 11.9538C21.686 11.7242 11.9172 11.7189 11.0326 11.9477C10.1969 12.1639 9.54726 12.5426 8.77366 13.2645C8.24654 13.7566 8.01194 14.0719 7.71308 14.6905C7.20566 15.7405 7.11753 16.3023 7.11753 18.4867V20.3214L6.71241 20.4542C6.4895 20.5273 6.02159 20.7528 5.67262 20.9552L5.03796 21.3235V13.7262C5.03796 7.02568 5.05677 6.06564 5.19759 5.59457C5.68114 3.97593 6.88551 2.73355 8.50163 2.18636L9.14758 1.96764L25.1967 1.96508C39.6726 1.96282 41.2986 1.97807 41.7838 2.12106ZM22.5202 14.0747C23.1277 14.3931 23.7966 15.0939 24.0843 15.7134C24.2713 16.1161 24.302 16.3831 24.3311 17.8625L24.3644 19.5518L16.954 19.592C12.8783 19.6141 9.44338 19.6667 9.32088 19.709L9.09807 19.7857V18.2186C9.09807 16.5328 9.20948 15.9205 9.63935 15.2443C10.0242 14.639 10.775 14.07 11.4741 13.854C11.6106 13.8118 14.0395 13.7854 16.8717 13.7952L22.0211 13.813L22.5202 14.0747ZM39.6825 14.0413C40.3707 14.406 40.932 14.9869 41.2438 15.6572C41.5195 16.2503 41.5306 16.3329 41.5624 18.0308L41.5954 19.7901L41.3644 19.7106C41.2373 19.6668 37.7987 19.6134 33.7229 19.5919L26.3126 19.5528L26.3459 17.863C26.375 16.3831 26.4057 16.1161 26.5927 15.7134C26.9828 14.8735 27.8342 14.1243 28.7054 13.8541C28.8416 13.8119 31.2702 13.7854 34.1024 13.7952L39.2518 13.813L39.6825 14.0413ZM40.5878 21.636C42.8379 21.8653 44.8618 22.8551 46.3196 24.4391C47.0086 25.1879 47.3546 25.7021 47.8207 26.6706C48.5081 28.0984 48.6347 28.7615 48.6845 31.192L48.7282 33.3275L43.561 33.3556L38.3938 33.3835L38.1048 33.7047C37.7101 34.1436 37.7103 34.6213 38.1054 35.0137L38.3948 35.3012H43.5519H48.7089V37.2681V39.235H25.3385H1.96812V37.2681V35.3012H15.6118C30.7088 35.3012 29.5652 35.3528 29.795 34.6611C29.9569 34.174 29.6856 33.6271 29.2006 33.4628C28.939 33.3742 25.5517 33.3441 15.4003 33.3398L1.94663 33.3343L1.99198 31.1462C2.03387 29.1245 2.05764 28.8912 2.30431 28.0807C3.05157 25.6246 4.54312 23.7888 6.73885 22.6227C7.65831 22.1344 8.92279 21.7466 9.9398 21.6413C11.1433 21.5166 39.3683 21.5117 40.5878 21.636ZM33.5859 33.4105C33.2478 33.4643 32.8646 33.9805 32.8646 34.3821C32.8646 34.8758 33.3092 35.3012 33.8252 35.3012C34.5632 35.3012 34.9942 34.6656 34.7115 33.994C34.6327 33.8067 34.5176 33.6224 34.4558 33.5844C34.2592 33.4636 33.8128 33.3744 33.5859 33.4105ZM6.02823 42.0409C6.02823 43.267 5.7358 43.8438 4.89754 44.2705C4.31853 44.5653 3.40134 44.4884 2.8455 44.0985C2.22608 43.664 2.02437 43.1989 1.98327 42.1115L1.94901 41.2019H3.98857H6.02823V42.0409ZM48.6938 42.1115C48.6527 43.1989 48.451 43.664 47.8315 44.0985C47.2757 44.4884 46.3585 44.5653 45.7795 44.2705C44.9412 43.8438 44.6488 43.267 44.6488 42.0409V41.2019H46.6885H48.728L48.6938 42.1115Z" fill="#F6B72A"/>
</svg>
