<svg id="Line" enable-background="new 0 0 32 32" viewBox="0 0 32 32" xmlns="http://www.w3.org/2000/svg"><path id="XMLID_109_" d="m17 21v-1h-2.5c-.827 0-1.5-.673-1.5-1.5v-2c0-.827.673-1.5 1.5-1.5h.5v-1h2v1h1c.552 0 1 .448 1 1s-.448 1-1 1h-3v1h2.5c.827 0 1.5.673 1.5 1.5v2c0 .827-.673 1.5-1.5 1.5h-.5v1h-2v-1h-1c-.552 0-1-.448-1-1s.448-1 1-1z"/><path id="XMLID_379_" d="m29.292 14.193-10.872-10.234c-1.357-1.278-3.484-1.278-4.841 0l-2.579 2.429v-2.388c0-.552-.448-1-1-1h-4c-.552 0-1 .448-1 1v8.036l-2.263 2.131c-.687.596-.919 1.545-.593 2.418.321.86 1.107 1.415 2.002 1.415h.854v10c0 .552.448 1 1 1h20c.552 0 1-.448 1-1v-10h.852c.896 0 1.683-.556 2.004-1.416.325-.873.092-1.822-.564-2.391zm-22.292-9.193h2v3.27l-2 1.883zm20.982 10.885c-.043.115-.109.115-.13.115h-1.852c-.552 0-1 .448-1 1v10h-18v-10c0-.552-.448-1-1-1h-1.854c-.021 0-.086 0-.129-.115-.015-.041-.043-.144.061-.235l10.872-10.234c.588-.554 1.511-.554 2.099 0l10.901 10.261c.075.064.047.167.032.208z"/></svg>