<svg viewBox="0 0 27 20" fill="none" xmlns="http://www.w3.org/2000/svg">
  <path d="M22.7573 5.89955H22.3436V2.26906C22.3422 1.01654 21.4167 0.00147489 20.2747 0H6.20654C5.06454 0.00147489 4.13904 1.01654 4.1377 2.26906V5.89955H3.72393C1.66832 5.90228 0.00248262 7.72932 0 9.98386V16.3372H0.827539V19.5139H2.89639V16.3372H23.5849V19.5139H25.6537V16.3372H26.4813V9.98386C26.4788 7.72932 24.8129 5.90228 22.7573 5.89955ZM4.96523 2.26906C4.96523 1.51715 5.52098 0.907624 6.20654 0.907624H20.2747C20.9603 0.907624 21.516 1.51715 21.516 2.26906V5.89955H20.2747V4.08431C20.2747 3.3324 19.719 2.72287 19.0334 2.72287H15.3095C14.6239 2.72287 14.0682 3.3324 14.0682 4.08431V5.89955H12.4131V4.08431C12.4131 3.3324 11.8573 2.72287 11.1718 2.72287H7.44785C6.76229 2.72287 6.20654 3.3324 6.20654 4.08431V5.89955H4.96523V2.26906ZM19.4472 4.08431V5.89955H14.8957V4.08431C14.8957 3.83369 15.081 3.63049 15.3095 3.63049H19.0334C19.2619 3.63049 19.4472 3.83369 19.4472 4.08431ZM11.5855 4.08431V5.89955H7.03408V4.08431C7.03408 3.83369 7.21935 3.63049 7.44785 3.63049H11.1718C11.4003 3.63049 11.5855 3.83369 11.5855 4.08431ZM2.06885 18.6063H1.65508V16.3372H2.06885V18.6063ZM24.8262 18.6063H24.4124V16.3372H24.8262V18.6063ZM25.6537 15.4296H0.827539V13.1605H25.6537V15.4296ZM25.6537 12.2529H0.827539V9.98386C0.829349 8.23027 2.12507 6.80916 3.72393 6.80718H22.7573C24.3562 6.80916 25.6519 8.23027 25.6537 9.98386V12.2529Z" fill="#F6B72A" />
</svg>