<svg viewBox="0 0 46 48" fill="none" xmlns="http://www.w3.org/2000/svg">
  <path fill-rule="evenodd" clip-rule="evenodd" d="M19.8879 1.68346C4.71111 10.7893 0.505632 13.3409 0.272325 13.5849L0 13.8697V30.3944V46.9191L0.243112 47.1605L0.486124 47.4019H3.11935H5.75258L5.9956 47.1605L6.23871 46.9191V35.605V24.291H22.8753H39.5118V35.605V46.9191L39.7549 47.1605L39.9979 47.4019H42.6312H45.2644L45.5074 47.1605L45.7505 46.9191V30.3944V13.8697L45.4782 13.5836C45.243 13.3367 42.1464 11.4582 25.8131 1.65435C24.2971 0.744465 22.9751 0 22.8753 0C22.7754 0 21.4311 0.757545 19.8879 1.68346ZM33.5346 8.14526L44.1166 14.5203L44.1416 30.1744L44.1667 45.8284H42.6315H41.0962V32.1719V18.5156L40.8352 18.2562L40.5741 17.997H22.8753H5.17644L4.91531 18.2562L4.65427 18.5156V32.1719V45.8284H3.11906H1.58384L1.60889 30.178L1.63395 14.5276L12.222 8.1489C18.0455 4.64057 22.8422 1.7702 22.8814 1.7702C22.9206 1.7702 27.7146 4.63899 33.5346 8.14526ZM39.5118 21.144V22.7175H22.8753H6.23871V21.144V19.5705H22.8753H39.5118V21.144ZM14.7256 25.9069C14.1116 26.1263 13.5939 26.5209 13.3271 26.9732C13.1893 27.2066 12.6077 28.6537 12.0347 30.1886L10.9928 32.9796L10.2492 33.7384C9.77536 34.2219 9.40698 34.7063 9.23378 35.0735L8.96195 35.6498L8.93413 41.2813L8.9062 46.9129L9.15238 47.1574L9.39856 47.4019H12.3289H15.2592L15.5022 47.1605C15.7402 46.9242 15.7453 46.8854 15.7453 45.3411V43.7632H22.8753H30.0052V45.3411C30.0052 46.8854 30.0104 46.9242 30.2483 47.1605L30.4913 47.4019H33.4216H36.352L36.598 47.1575L36.8442 46.913L36.8164 41.1831L36.7886 35.4531L36.5185 34.8807C36.3701 34.566 36.0044 34.0322 35.7058 33.6945C35.187 33.1077 35.1188 32.9616 34.159 30.3823C33.6067 28.8981 33.0902 27.529 33.0111 27.3397C32.8275 26.9001 32.2465 26.3016 31.7382 26.0283C31.3422 25.8153 31.3408 25.8153 23.2219 25.7939C16.5652 25.7764 15.0339 25.7967 14.7256 25.9069ZM31.1081 27.4942C31.295 27.5902 31.4758 27.8043 31.5853 28.0597C31.9696 28.955 33.3007 32.6556 33.255 32.7011C33.2281 32.7278 28.6158 32.7383 23.0054 32.7245L12.8046 32.6994L13.3867 31.1259C14.5872 27.8806 14.6535 27.7317 14.9886 27.5288C15.2881 27.3475 15.5886 27.3404 23.0535 27.3401C29.9083 27.3397 30.8422 27.3576 31.1081 27.4942ZM34.5821 34.8038C34.822 35.0687 35.0711 35.4611 35.1359 35.6757C35.2159 35.941 35.2536 37.0467 35.2536 39.1278V42.1897H22.8753H10.4969L10.4991 39.1656C10.5015 35.6761 10.503 35.6689 11.4056 34.8211L11.9328 34.326L23.0394 34.3241L34.146 34.3221L34.5821 34.8038ZM13.1842 36.3195C13.001 36.3885 12.6773 36.5899 12.4647 36.7672C11.3536 37.6936 11.3598 39.299 12.4781 40.2497C12.9999 40.6932 13.5834 40.8522 14.4611 40.7898C15.3453 40.727 15.9571 40.3765 16.3864 39.687C16.6469 39.2685 16.6861 39.1135 16.6861 38.5017C16.6861 37.8899 16.6469 37.735 16.3864 37.3165C16.203 37.0221 15.9027 36.7221 15.6127 36.5441C15.2058 36.2943 15.024 36.2489 14.328 36.2236C13.8379 36.2057 13.3855 36.2437 13.1842 36.3195ZM30.588 36.3264C30.0325 36.5235 29.6348 36.8499 29.3372 37.3526C29.1089 37.7382 29.0645 37.9269 29.0645 38.5094C29.0645 39.1127 29.1045 39.2698 29.3641 39.687C29.803 40.3918 30.4087 40.7319 31.3304 40.7906C32.2657 40.8502 32.9074 40.65 33.3925 40.1471C33.919 39.6013 34.0997 39.1807 34.0993 38.5017C34.0988 37.5289 33.4902 36.6571 32.5919 36.3424C32.0703 36.1596 31.0801 36.1517 30.588 36.3264ZM18.266 36.5304C18.0258 36.7689 18.0229 36.7931 18.0229 38.5509C18.0229 40.3087 18.0258 40.3329 18.266 40.5714L18.5091 40.8128H22.8257H27.1424L27.3855 40.5714C27.6257 40.3329 27.6286 40.3087 27.6286 38.5509C27.6286 36.7931 27.6257 36.7689 27.3855 36.5304L27.1424 36.289H22.8257H18.5091L18.266 36.5304ZM14.908 38.0056C15.4341 38.5279 15.0306 39.2393 14.2084 39.2393C13.6413 39.2393 13.4295 39.1309 13.2754 38.7615C13.1762 38.5235 13.1821 38.4207 13.3092 38.1765C13.4949 37.82 13.5779 37.782 14.1901 37.7719C14.5686 37.7657 14.7143 37.8131 14.908 38.0056ZM32.1768 37.8588C32.2746 37.9108 32.4089 38.0833 32.4751 38.242C32.5742 38.4795 32.5684 38.5827 32.4429 38.8239C32.2612 39.1726 32.1143 39.2393 31.5276 39.2393C31.1903 39.2393 31.0279 39.1821 30.8425 38.9979C30.3165 38.4756 30.7199 37.7642 31.5421 37.7642C31.7932 37.7642 32.0788 37.8067 32.1768 37.8588ZM26.1432 38.5509V39.2393H22.8753H19.6074V38.5509V37.8625H22.8753H26.1432V38.5509ZM14.1609 44.7958V45.8284H12.3289H10.4969V44.7958V43.7632H12.3289H14.1609V44.7958ZM35.2536 44.7958V45.8284H33.4216H31.5896V44.7958V43.7632H33.4216H35.2536V44.7958Z" fill="#F6B72A" />
</svg>