<svg viewBox="0 0 24 19" fill="none" xmlns="http://www.w3.org/2000/svg">
  <path d="M21.6509 0.292969H2.08627C0.935902 0.292969 0 1.22887 0 2.37924V16.2877C0 17.4381 0.935902 18.374 2.08627 18.374H21.6509C22.8013 18.374 23.7372 17.4381 23.7372 16.2877V2.37924C23.7372 1.22887 22.8013 0.292969 21.6509 0.292969ZM18.6286 1.68382L11.8686 6.72727L5.10859 1.68382H18.6286ZM2.08627 1.68382H2.78267L11.4527 8.15233C11.5761 8.24436 11.7223 8.29035 11.8686 8.29035C12.0148 8.29035 12.1611 8.24436 12.2844 8.15233L20.9545 1.68382H21.6509C22.0341 1.68382 22.3458 1.99532 22.3463 2.37841L11.8686 10.2041L1.3909 2.37841C1.39136 1.99532 1.70309 1.68382 2.08627 1.68382ZM11.4524 11.6292C11.5759 11.7214 11.7222 11.7675 11.8686 11.7675C12.0149 11.7675 12.1613 11.7214 12.2847 11.6292L19.5646 6.19193V16.9832H4.17255V6.19193L11.4524 11.6292ZM1.39085 16.2877V4.11433L2.7817 5.15315V16.9832H2.08627C1.70282 16.9832 1.39085 16.6712 1.39085 16.2877ZM21.6509 16.9832H20.9555V5.15315L22.3463 4.11433V16.2877C22.3463 16.6712 22.0343 16.9832 21.6509 16.9832Z" fill="#F6B72A" />
</svg>