<svg id="svg1787" viewBox="0 0 8.4666664 8.4666664"  xmlns="http://www.w3.org/2000/svg" xmlns:svg="http://www.w3.org/2000/svg"><g id="layer1" transform="translate(0 -288.533)"><path id="path2674" d="m4.23291 288.66378c-.3561596 0-.6920172.18101-.7792807.24081-1.0987425.72187-2.1343346 1.51869-3.16776517 2.32183-.3550617.27615-.050116.83683.3746541.68884v3.47731c0 .79998.62716457 1.47691 1.41800127 1.47691 1.4374379.00014 2.874811 0 4.3108479 0 .7908366 0 1.4180013-.67693 1.4180013-1.47691v-3.47782c.4237378.14612.7274157-.41181.3746542-.68833-1.0158958-.82835-2.100833-1.56162-3.1677652-2.32183-.2343166-.13806-.4183118-.24119-.7813477-.24081zm.3359092.89865 2.1838459 1.55702c.1419247.10472.259415.28729.259415.4687v3.80442c0 .39839-.2831491.68368-.6227011.68368h-.5451861v-1.9575c0-.62355-.5148837-1.13844-1.138432-1.13844h-.9415447c-.623548 0-1.1368813.51489-1.1368813 1.13844v.76584c-.021318.54973.8145508.54973.7932331 0v-.76584c0-.19754.1461069-.34572.3436482-.34572h.9415447c.1975414 0 .3436482.14818.3436482.34572v1.9575h-2.9708896c-.3395519 0-.622701-.28529-.622701-.68368v-3.80442c0-.25407.1581333-.38417.2645834-.47232l2.1905639-1.56321c.2317753-.15685.4397182-.14404.6578534.01z" fill="rgb(0,0,0)" font-variant-ligatures="normal" font-variant-position="normal" font-variant-caps="normal" font-variant-numeric="normal" font-variant-alternates="normal" font-feature-settings="normal" text-indent="0" text-align="start" text-decoration-line="none" text-decoration-style="solid" text-decoration-color="rgb(0,0,0)" text-transform="none" text-orientation="mixed" white-space="normal" shape-padding="0" isolation="auto" mix-blend-mode="normal" solid-color="rgb(0,0,0)" solid-opacity="1" vector-effect="none"/></g></svg>