<svg width="25" height="25" viewBox="0 0 25 25" fill="none" xmlns="http://www.w3.org/2000/svg">
<path d="M24.0962 7.10378C24.0396 5.81994 23.832 4.93732 23.5346 4.17251C23.2278 3.36069 22.7558 2.63386 22.1373 2.02965C21.5331 1.41604 20.8015 0.93923 19.9991 0.637216C19.2299 0.339812 18.3519 0.1322 17.068 0.0755956C15.7746 0.0141972 15.364 0 12.0835 0C8.80302 0 8.39241 0.0141972 7.10378 0.0708018C5.81994 0.127406 4.93732 0.335202 4.17269 0.632422C3.36069 0.93923 2.63386 1.41124 2.02965 2.02965C1.41604 2.63386 0.939414 3.36548 0.637216 4.1679C0.339812 4.93732 0.1322 5.81515 0.0755956 7.09898C0.0141972 8.39241 0 8.80302 0 12.0835C0 15.364 0.0141972 15.7746 0.0708018 17.0632C0.127406 18.3471 0.335202 19.2297 0.632606 19.9945C0.939414 20.8063 1.41604 21.5331 2.02965 22.1373C2.63386 22.751 3.36548 23.2278 4.1679 23.5298C4.93732 23.8272 5.81515 24.0348 7.09917 24.0914C8.38761 24.1482 8.79841 24.1622 12.0789 24.1622C15.3594 24.1622 15.77 24.1482 17.0586 24.0914C18.3424 24.0348 19.2251 23.8272 19.9897 23.5298C21.6135 22.902 22.8974 21.6181 23.5252 19.9945C23.8224 19.2251 24.0302 18.3471 24.0868 17.0632C24.1434 15.7746 24.1576 15.364 24.1576 12.0835C24.1576 8.80302 24.1528 8.39241 24.0962 7.10378ZM21.9203 16.9688C21.8683 18.1489 21.6701 18.7861 21.5049 19.2109C21.0989 20.2635 20.2635 21.0989 19.2109 21.5049C18.7861 21.6701 18.1442 21.8683 16.9688 21.9201C15.6944 21.9769 15.3122 21.991 12.0883 21.991C8.86442 21.991 8.4774 21.9769 7.20758 21.9201C6.02755 21.8683 5.39034 21.6701 4.96553 21.5049C4.4417 21.3113 3.9649 21.0045 3.57789 20.6033C3.17668 20.2115 2.86987 19.7395 2.67627 19.2157C2.51107 18.7909 2.31286 18.1489 2.26105 16.9736C2.20426 15.6992 2.19024 15.3168 2.19024 12.0929C2.19024 8.86903 2.20426 8.48201 2.26105 7.21238C2.31286 6.03235 2.51107 5.39513 2.67627 4.97032C2.86987 4.44631 3.17668 3.96969 3.58268 3.5825C3.9743 3.18129 4.44631 2.87448 4.97032 2.68106C5.39513 2.51586 6.03714 2.31765 7.21238 2.26566C8.48681 2.20905 8.86921 2.19485 12.0929 2.19485C15.3216 2.19485 15.7038 2.20905 16.9736 2.26566C18.1536 2.31765 18.7909 2.51586 19.2157 2.68106C19.7395 2.87448 20.2163 3.18129 20.6033 3.5825C21.0045 3.9743 21.3113 4.44631 21.5049 4.97032C21.6701 5.39513 21.8683 6.03696 21.9203 7.21238C21.9769 8.48681 21.9911 8.86903 21.9911 12.0929C21.9911 15.3168 21.9769 15.6944 21.9203 16.9688Z" fill="#F6B72A"/>
<path d="M12.0835 5.87654C8.65681 5.87654 5.87655 8.65662 5.87655 12.0835C5.87655 15.5104 8.65681 18.2904 12.0835 18.2904C15.5104 18.2904 18.2905 15.5104 18.2905 12.0835C18.2905 8.65662 15.5104 5.87654 12.0835 5.87654ZM12.0835 16.1098C9.86044 16.1098 8.0572 14.3067 8.0572 12.0835C8.0572 9.86025 9.86044 8.0572 12.0835 8.0572C14.3067 8.0572 16.1098 9.86025 16.1098 12.0835C16.1098 14.3067 14.3067 16.1098 12.0835 16.1098Z" fill="#F6B72A"/>
<path d="M19.9851 5.63114C19.9851 6.43134 19.3363 7.08018 18.5359 7.08018C17.7357 7.08018 17.0868 6.43134 17.0868 5.63114C17.0868 4.83075 17.7357 4.1821 18.5359 4.1821C19.3363 4.1821 19.9851 4.83075 19.9851 5.63114Z" fill="#F6B72A"/>
</svg>
