<svg id="Capa_1" enable-background="new 0 0 512 512" viewBox="0 0 512 512" xmlns="http://www.w3.org/2000/svg">
  <g>
    <path d="m93.265 256.899c.04.084.081.168.121.251l108.446 220.676c9.913 20.765 31.158 34.174 54.168 34.174s44.255-13.409 54.168-34.174l108.446-220.676c.04-.083.081-.167.121-.251 11.456-24.157 17.265-50.029 17.265-76.899 0-99.252-80.748-180-180-180s-180 80.748-180 180c0 26.869 5.809 52.742 17.265 76.899zm162.735-216.899c77.196 0 140 62.804 140 140 0 20.849-4.49 40.911-13.348 59.634l-108.439 220.664c-.041.083-.082.167-.121.251-3.3 6.956-10.401 11.451-18.092 11.451s-14.792-4.495-18.092-11.451c-.039-.084-.08-.167-.121-.251l-108.436-220.658c-8.859-18.724-13.351-38.79-13.351-59.64 0-77.196 62.804-140 140-140z" />
    <path d="m256 280c55.141 0 100-44.86 100-100s-44.859-100-100-100-100 44.86-100 100 44.859 100 100 100zm0-160c33.084 0 60 26.916 60 60s-26.916 60-60 60-60-26.916-60-60 26.916-60 60-60z" />
  </g>
</svg>