<svg viewBox="0 0 824 274" fill="none" xmlns="http://www.w3.org/2000/svg">
<g clip-path="url(#clip0_1_5)">
<path d="M234.255 264.326V251.324H237.074V264.326C237.074 266.89 236.188 269.03 234.414 270.769C232.641 272.48 230.452 273.339 227.847 273.339C225.242 273.339 223.026 272.48 221.252 270.769C219.5 269.037 218.62 266.89 218.62 264.326V251.324H221.405V264.326C221.405 266.162 222.014 267.693 223.233 268.912C224.494 270.132 226.032 270.741 227.847 270.741C229.662 270.741 231.179 270.132 232.398 268.912C233.618 267.693 234.255 266.148 234.255 264.326Z" fill="#305B1E"/>
<path d="M241.376 272.993V256.893H243.974V259.249C245.193 257.455 246.953 256.554 249.266 256.554C250.423 256.554 251.483 256.831 252.439 257.392C253.395 257.953 254.136 258.701 254.656 259.65C255.009 259.034 255.556 258.411 256.298 257.794C257.288 256.97 258.639 256.554 260.35 256.554C262.165 256.554 263.675 257.122 264.874 258.258C266.072 259.394 266.668 260.821 266.668 262.532V272.999H264.07V263.246C264.07 262.047 263.675 261.05 262.893 260.239C262.11 259.436 261.119 259.034 259.921 259.034C258.618 259.034 257.524 259.45 256.637 260.274C255.771 261.078 255.335 262.082 255.335 263.273V272.993H252.737V263.239C252.737 262.04 252.342 261.043 251.546 260.232C250.749 259.429 249.751 259.027 248.56 259.027C247.257 259.027 246.163 259.443 245.276 260.267C244.41 261.071 243.974 262.075 243.974 263.267V272.986H241.376V272.993Z" fill="#305B1E"/>
<path d="M279.518 272.993V249.772H282.116V259.588C283.397 257.565 285.316 256.554 287.872 256.554C289.729 256.554 291.288 257.164 292.548 258.383C293.788 259.581 294.405 261.105 294.405 262.969V272.999H291.807V263.648C291.807 262.345 291.364 261.251 290.477 260.364C289.59 259.477 288.482 259.034 287.166 259.034C285.739 259.034 284.547 259.491 283.578 260.399C282.608 261.306 282.123 262.415 282.123 263.71V272.999H279.525L279.518 272.993Z" fill="#305B1E"/>
<path d="M300.293 270.949C298.707 269.321 297.91 267.319 297.91 264.943C297.91 262.567 298.707 260.558 300.293 258.965C301.88 257.371 303.902 256.547 306.299 256.547C308.696 256.547 310.698 257.351 312.305 258.965C313.912 260.551 314.723 262.546 314.723 264.943C314.723 267.34 313.919 269.342 312.305 270.949C310.677 272.535 308.675 273.332 306.299 273.332C303.923 273.332 301.921 272.535 300.293 270.949ZM306.299 270.734C307.927 270.734 309.292 270.187 310.386 269.092C311.481 267.956 312.028 266.578 312.028 264.943C312.028 263.308 311.481 261.916 310.386 260.828C309.292 259.713 307.927 259.159 306.299 259.159C304.671 259.159 303.314 259.713 302.247 260.828C301.152 261.923 300.605 263.294 300.605 264.943C300.605 266.592 301.152 267.956 302.247 269.092C303.341 270.187 304.692 270.734 306.299 270.734Z" fill="#305B1E"/>
<path d="M320.888 263.89V272.993H318.29V256.893H320.888V259.616C322.107 257.572 324.012 256.554 326.617 256.554H327.047V259.436C326.714 259.311 326.333 259.249 325.904 259.249C324.477 259.249 323.292 259.692 322.343 260.579C321.373 261.486 320.888 262.588 320.888 263.89Z" fill="#305B1E"/>
<path d="M329.894 254.261C329.561 253.908 329.402 253.478 329.402 252.959C329.402 252.439 329.568 252.017 329.894 251.691C330.247 251.338 330.676 251.165 331.196 251.165C331.716 251.165 332.145 251.338 332.498 251.691C332.852 252.023 333.025 252.446 333.025 252.959C333.025 253.471 332.852 253.908 332.498 254.261C332.145 254.594 331.716 254.76 331.196 254.76C330.676 254.76 330.247 254.594 329.894 254.261ZM332.491 272.993H329.894V256.893H332.491V272.993Z" fill="#305B1E"/>
<path d="M335.934 272.993V270.977L345.473 259.304H336.094V256.886H349.034V258.902L339.495 270.575H349.186V272.993H335.934Z" fill="#305B1E"/>
<path d="M353.516 270.949C351.93 269.321 351.133 267.319 351.133 264.943C351.133 262.567 351.93 260.558 353.516 258.965C355.102 257.371 357.125 256.547 359.522 256.547C361.919 256.547 363.921 257.351 365.528 258.965C367.135 260.551 367.946 262.546 367.946 264.943C367.946 267.34 367.142 269.342 365.528 270.949C363.9 272.535 361.898 273.332 359.522 273.332C357.146 273.332 355.144 272.535 353.516 270.949ZM359.522 270.734C361.15 270.734 362.515 270.187 363.609 269.092C364.704 267.956 365.251 266.578 365.251 264.943C365.251 263.308 364.704 261.916 363.609 260.828C362.515 259.713 361.15 259.159 359.522 259.159C357.894 259.159 356.536 259.713 355.469 260.828C354.375 261.923 353.828 263.294 353.828 264.943C353.828 266.592 354.375 267.956 355.469 269.092C356.564 270.187 357.915 270.734 359.522 270.734Z" fill="#305B1E"/>
<path d="M371.506 272.993V256.893H374.104V259.588C375.386 257.565 377.291 256.554 379.833 256.554C381.689 256.554 383.227 257.164 384.446 258.383C385.686 259.581 386.303 261.105 386.303 262.969V272.999H383.705V263.648C383.705 262.345 383.262 261.251 382.375 260.364C381.509 259.477 380.422 259.034 379.126 259.034C377.72 259.034 376.536 259.491 375.566 260.399C374.596 261.306 374.111 262.414 374.111 263.71V272.999H371.513L371.506 272.993Z" fill="#305B1E"/>
<path d="M388.908 259.186V256.893H391.505V253.672H394.103V256.893H398.592V259.186H394.103V267.949C394.103 268.67 394.325 269.279 394.768 269.757C395.212 270.242 395.766 270.485 396.424 270.485H398.592V272.993H396.237C394.893 272.993 393.771 272.535 392.863 271.628C391.956 270.72 391.499 269.598 391.499 268.254V259.179H388.901L388.908 259.186Z" fill="#305B1E"/>
<path d="M417.421 265.844H403.58C403.767 267.291 404.404 268.497 405.499 269.467C406.572 270.416 407.896 270.894 409.461 270.894C411.505 270.894 413.091 270.118 414.227 268.573L416.769 269.376C416.028 270.616 415.01 271.586 413.721 272.286C412.433 272.986 411.013 273.339 409.461 273.339C407.023 273.339 404.979 272.542 403.33 270.956C401.703 269.349 400.885 267.347 400.885 264.95C400.885 262.553 401.682 260.565 403.268 258.972C404.854 257.364 406.829 256.554 409.184 256.554C411.539 256.554 413.527 257.358 415.1 258.972C416.686 260.558 417.483 262.553 417.483 264.95C417.483 265.012 417.462 265.31 417.421 265.85V265.844ZM403.614 263.738H414.788C414.539 262.352 413.888 261.209 412.835 260.302C411.803 259.415 410.563 258.972 409.122 258.972C407.681 258.972 406.51 259.415 405.499 260.302C404.487 261.188 403.857 262.331 403.608 263.738H403.614Z" fill="#305B1E"/>
<path d="M436.367 256.554C438.785 256.554 440.745 257.434 442.248 259.186V249.772H444.846V272.993H442.248V270.7C440.738 272.452 438.778 273.332 436.367 273.332C434.116 273.332 432.231 272.535 430.7 270.949C429.19 269.363 428.442 267.361 428.442 264.943C428.442 262.525 429.197 260.537 430.7 258.965C432.204 257.358 434.095 256.547 436.367 256.547V256.554ZM436.644 259.152C435.092 259.152 433.783 259.706 432.709 260.821C431.656 261.916 431.13 263.287 431.13 264.936C431.13 266.585 431.656 267.97 432.709 269.086C433.804 270.18 435.113 270.727 436.644 270.727C438.175 270.727 439.526 270.18 440.579 269.086C441.652 267.991 442.186 266.606 442.186 264.936C442.186 263.267 441.646 261.895 440.579 260.821C439.526 259.706 438.217 259.152 436.644 259.152Z" fill="#305B1E"/>
<path d="M464.942 265.844H451.101C451.288 267.291 451.926 268.497 453.02 269.467C454.094 270.416 455.417 270.894 456.983 270.894C459.026 270.894 460.613 270.118 461.749 268.573L464.291 269.376C463.55 270.616 462.531 271.586 461.243 272.286C459.955 272.986 458.534 273.339 456.983 273.339C454.544 273.339 452.501 272.542 450.852 270.956C449.224 269.349 448.407 267.347 448.407 264.95C448.407 262.553 449.203 260.565 450.79 258.972C452.376 257.364 454.35 256.554 456.706 256.554C459.061 256.554 461.049 257.358 462.622 258.972C464.208 260.558 465.005 262.553 465.005 264.95C465.005 265.012 464.984 265.31 464.942 265.85V265.844ZM451.136 263.738H462.31C462.06 262.352 461.409 261.209 460.356 260.302C459.324 259.415 458.084 258.972 456.643 258.972C455.202 258.972 454.032 259.415 453.02 260.302C452.009 261.188 451.378 262.331 451.129 263.738H451.136Z" fill="#305B1E"/>
<path d="M492.499 265.844H478.658C478.845 267.291 479.483 268.497 480.577 269.467C481.651 270.416 482.974 270.894 484.54 270.894C486.583 270.894 488.17 270.118 489.306 268.573L491.848 269.376C491.107 270.616 490.088 271.586 488.8 272.286C487.511 272.986 486.091 273.339 484.54 273.339C482.101 273.339 480.058 272.542 478.409 270.956C476.781 269.349 475.964 267.347 475.964 264.95C475.964 262.553 476.76 260.565 478.347 258.972C479.933 257.364 481.907 256.554 484.263 256.554C486.618 256.554 488.606 257.358 490.178 258.972C491.765 260.558 492.561 262.553 492.561 264.95C492.561 265.012 492.541 265.31 492.499 265.85V265.844ZM478.693 263.738H489.867C489.617 262.352 488.966 261.209 487.913 260.302C486.881 259.415 485.641 258.972 484.2 258.972C482.759 258.972 481.589 259.415 480.577 260.302C479.566 261.188 478.935 262.331 478.686 263.738H478.693Z" fill="#305B1E"/>
<path d="M506.804 260.392L504.359 260.828C504.192 260.212 503.805 259.727 503.195 259.373C502.585 259.02 501.816 258.847 500.888 258.847C499.96 258.847 499.26 259.041 498.671 259.436C498.083 259.831 497.792 260.336 497.792 260.953C497.792 261.819 498.36 262.449 499.496 262.844L503.43 264.236C505.89 265.144 507.116 266.612 507.116 268.635C507.116 270.104 506.562 271.254 505.446 272.085C504.331 272.923 502.876 273.339 501.082 273.339C499.288 273.339 497.958 272.965 496.856 272.21C495.755 271.455 495.09 270.429 494.861 269.127L497.307 268.691C497.473 269.39 497.902 269.958 498.588 270.395C499.281 270.824 500.133 271.046 501.144 271.046C502.156 271.046 502.966 270.831 503.638 270.395C504.31 269.958 504.643 269.404 504.643 268.725C504.643 267.755 503.929 267.021 502.509 266.529L498.671 265.199C496.42 264.437 495.298 263.086 495.298 261.14C495.298 259.699 495.831 258.57 496.891 257.766C497.951 256.963 499.35 256.561 501.089 256.561C502.634 256.561 503.922 256.907 504.941 257.6C505.959 258.293 506.589 259.228 506.811 260.399L506.804 260.392Z" fill="#305B1E"/>
<path d="M525.875 261.417L523.277 262.193C522.799 261.265 522.113 260.523 521.22 259.976C520.319 259.429 519.315 259.159 518.2 259.159C516.572 259.159 515.214 259.713 514.147 260.828C513.053 261.923 512.505 263.294 512.505 264.943C512.505 266.592 513.053 267.956 514.147 269.092C515.242 270.187 516.592 270.734 518.2 270.734C519.315 270.734 520.319 270.464 521.22 269.917C522.12 269.37 522.806 268.635 523.277 267.7L525.875 268.476C525.217 269.986 524.199 271.171 522.827 272.037C521.455 272.903 519.911 273.339 518.2 273.339C515.823 273.339 513.821 272.542 512.194 270.956C510.607 269.328 509.811 267.326 509.811 264.95C509.811 262.574 510.607 260.565 512.194 258.972C513.78 257.378 515.803 256.554 518.2 256.554C519.911 256.554 521.455 256.99 522.827 257.856C524.199 258.722 525.217 259.914 525.875 261.417Z" fill="#305B1E"/>
<path d="M530.738 270.949C529.152 269.321 528.355 267.319 528.355 264.943C528.355 262.567 529.152 260.558 530.738 258.965C532.324 257.371 534.347 256.547 536.744 256.547C539.141 256.547 541.143 257.351 542.75 258.965C544.357 260.551 545.168 262.546 545.168 264.943C545.168 267.34 544.364 269.342 542.75 270.949C541.122 272.535 539.12 273.332 536.744 273.332C534.368 273.332 532.366 272.535 530.738 270.949ZM536.744 270.734C538.372 270.734 539.737 270.187 540.831 269.092C541.926 267.956 542.473 266.578 542.473 264.943C542.473 263.308 541.926 261.916 540.831 260.828C539.737 259.713 538.372 259.159 536.744 259.159C535.116 259.159 533.758 259.713 532.692 260.828C531.597 261.923 531.05 263.294 531.05 264.943C531.05 266.592 531.597 267.956 532.692 269.092C533.786 270.187 535.137 270.734 536.744 270.734Z" fill="#305B1E"/>
<path d="M551.326 272.993H548.728V249.772H551.326V272.993Z" fill="#305B1E"/>
<path d="M555.718 272.993V249.772H558.316V259.588C559.597 257.565 561.516 256.554 564.072 256.554C565.929 256.554 567.488 257.164 568.748 258.383C569.988 259.581 570.605 261.105 570.605 262.969V272.999H568.007V263.648C568.007 262.345 567.564 261.251 566.677 260.364C565.79 259.477 564.682 259.034 563.366 259.034C561.939 259.034 560.747 259.491 559.777 260.399C558.808 261.306 558.323 262.415 558.323 263.71V272.999H555.725L555.718 272.993Z" fill="#305B1E"/>
<path d="M582.035 256.554C584.453 256.554 586.413 257.434 587.916 259.186V256.893H590.514V272.993H587.916V270.7C586.406 272.452 584.446 273.332 582.035 273.332C579.784 273.332 577.899 272.535 576.368 270.949C574.858 269.363 574.11 267.361 574.11 264.943C574.11 262.525 574.865 260.537 576.368 258.965C577.872 257.358 579.763 256.547 582.035 256.547V256.554ZM582.312 259.152C580.76 259.152 579.451 259.706 578.377 260.821C577.324 261.916 576.798 263.287 576.798 264.936C576.798 266.585 577.324 267.97 578.377 269.086C579.472 270.18 580.781 270.727 582.312 270.727C583.843 270.727 585.194 270.18 586.247 269.086C587.321 267.991 587.854 266.606 587.854 264.936C587.854 263.267 587.314 261.895 586.247 260.821C585.194 259.706 583.885 259.152 582.312 259.152Z" fill="#305B1E"/>
<path d="M605.844 260.392L603.399 260.828C603.233 260.212 602.845 259.727 602.235 259.373C601.625 259.02 600.857 258.847 599.928 258.847C599 258.847 598.3 259.041 597.712 259.436C597.123 259.831 596.832 260.336 596.832 260.953C596.832 261.819 597.4 262.449 598.536 262.844L602.471 264.236C604.93 265.144 606.156 266.612 606.156 268.635C606.156 270.104 605.602 271.254 604.486 272.085C603.371 272.923 601.916 273.339 600.122 273.339C598.328 273.339 596.998 272.965 595.897 272.21C594.795 271.455 594.13 270.429 593.902 269.127L596.347 268.691C596.513 269.39 596.943 269.958 597.628 270.395C598.321 270.824 599.173 271.046 600.185 271.046C601.196 271.046 602.006 270.831 602.678 270.395C603.35 269.958 603.683 269.404 603.683 268.725C603.683 267.755 602.969 267.021 601.549 266.529L597.712 265.199C595.46 264.437 594.338 263.086 594.338 261.14C594.338 259.699 594.871 258.57 595.931 257.766C596.991 256.963 598.39 256.561 600.129 256.561C601.674 256.561 602.962 256.907 603.981 257.6C604.999 258.293 605.63 259.228 605.851 260.399L605.844 260.392Z" fill="#305B1E"/>
<path d="M65.1793 47.2652H62.6024V67.306H65.1793V47.2652Z" fill="#305B1E"/>
<path d="M71.8504 58.3143C71.8504 57.2059 72.2521 56.2846 73.0557 55.5365C73.8731 54.7744 74.8915 54.3934 76.0899 54.3934C77.1983 54.3934 78.1196 54.7675 78.8539 55.5087C79.5882 56.2569 79.9553 57.1782 79.9553 58.2866V67.306H82.3591V58.3143C82.3591 57.2059 82.7609 56.2846 83.5645 55.5365C84.3819 54.7744 85.4002 54.3934 86.5987 54.3934C87.707 54.3934 88.6214 54.7675 89.3488 55.5087C90.0762 56.2569 90.4364 57.1782 90.4364 58.2866V67.306H92.8402V57.6285C92.8402 56.0422 92.286 54.726 91.1776 53.6799C90.0693 52.627 88.6769 52.1074 87.0004 52.1074C85.4141 52.1074 84.1672 52.4884 83.2458 53.2504C82.56 53.8254 82.0543 54.3934 81.7287 54.9684C81.2508 54.0886 80.5719 53.3959 79.6782 52.8764C78.7846 52.3568 77.8148 52.1005 76.7411 52.1005C74.6005 52.1005 72.9726 52.9318 71.8434 54.5943V52.4192H69.4396V67.306H71.8434V58.3143H71.8504Z" fill="#305B1E"/>
<path d="M108.33 47.4315L107.187 45.284L101.977 48.6645L102.802 50.1539L108.33 47.4315Z" fill="#305B1E"/>
<path d="M103.862 67.6177C106.057 67.6177 107.907 66.8834 109.417 65.4148C110.907 63.9255 111.648 62.0759 111.648 59.8591C111.648 57.6424 110.907 55.7997 109.417 54.3311C107.928 52.8417 106.078 52.1005 103.862 52.1005C101.645 52.1005 99.7952 52.8417 98.3058 54.3311C96.8164 55.8205 96.1029 57.6424 96.1029 59.8591C96.1029 62.0759 96.8372 63.9047 98.3058 65.4148C99.816 66.8834 101.666 67.6177 103.862 67.6177ZM100.114 56.0491C101.104 55.0169 102.358 54.5043 103.862 54.5043C105.365 54.5043 106.632 55.0169 107.644 56.0491C108.655 57.0605 109.161 58.3282 109.161 59.8591C109.161 61.3901 108.655 62.6439 107.644 63.6969C106.632 64.7083 105.372 65.2139 103.862 65.2139C102.351 65.2139 101.125 64.7083 100.114 63.6969C99.1024 62.6508 98.5968 61.3693 98.5968 59.8591C98.5968 58.349 99.1024 57.0605 100.114 56.0491Z" fill="#305B1E"/>
<path d="M125.336 52.4192L120.3 64.2095L115.292 52.4192H112.798L119.213 67.306H121.415L127.83 52.4192H125.336Z" fill="#305B1E"/>
<path d="M136.877 67.6178C138.311 67.6178 139.621 67.2922 140.812 66.641C142.004 65.9898 142.946 65.0962 143.631 63.9463L141.283 63.205C140.23 64.639 138.762 65.3525 136.87 65.3525C135.423 65.3525 134.196 64.9161 133.206 64.0363C132.194 63.1427 131.599 62.0205 131.432 60.6835H144.234C144.276 60.1847 144.29 59.9076 144.29 59.8522C144.29 57.6355 143.555 55.7928 142.087 54.3242C140.639 52.8348 138.81 52.0936 136.621 52.0936C134.432 52.0936 132.624 52.8348 131.155 54.3242C129.687 55.7928 128.952 57.6355 128.952 59.8522C128.952 62.069 129.707 63.9186 131.218 65.4079C132.742 66.8765 134.633 67.6108 136.884 67.6108L136.877 67.6178ZM133.213 55.5642C134.148 54.7468 135.263 54.3311 136.559 54.3311C137.854 54.3311 139.039 54.7398 139.995 55.5642C140.971 56.4024 141.567 57.4623 141.796 58.7438H131.46C131.689 57.4484 132.271 56.3885 133.206 55.5642H133.213Z" fill="#305B1E"/>
<path d="M149.762 52.4192H147.358V67.306H149.762V52.4192Z" fill="#305B1E"/>
<path d="M148.557 50.4379C149.035 50.4379 149.437 50.2855 149.762 49.9807C150.088 49.6551 150.247 49.2533 150.247 48.7754C150.247 48.2974 150.088 47.9094 149.762 47.6046C149.437 47.2791 149.035 47.1197 148.557 47.1197C148.079 47.1197 147.677 47.2791 147.351 47.6046C147.047 47.9094 146.894 48.3043 146.894 48.7754C146.894 49.2464 147.047 49.6551 147.351 49.9807C147.677 50.2855 148.079 50.4379 148.557 50.4379Z" fill="#305B1E"/>
<path d="M160.998 64.9022C160.375 65.304 159.613 65.5049 158.691 65.5049C157.77 65.5049 156.967 65.304 156.329 64.9022C155.692 64.5004 155.29 63.974 155.145 63.3297L152.879 63.7315C153.087 64.9369 153.704 65.8859 154.729 66.5786C155.747 67.2783 157.05 67.6247 158.636 67.6247C160.222 67.6247 161.643 67.2367 162.675 66.4678C163.707 65.6919 164.219 64.632 164.219 63.2743C164.219 61.4039 163.083 60.0462 160.811 59.2079L157.174 57.9195C156.121 57.5592 155.602 56.9773 155.602 56.1738C155.602 55.5988 155.872 55.1347 156.419 54.7675C156.967 54.4004 157.645 54.2203 158.47 54.2203C159.294 54.2203 160.042 54.3796 160.603 54.7052C161.165 55.0308 161.525 55.481 161.677 56.0491L163.935 55.6473C163.728 54.5597 163.146 53.6938 162.204 53.0565C161.261 52.4192 160.07 52.1005 158.636 52.1005C157.036 52.1005 155.74 52.4746 154.757 53.2158C153.773 53.957 153.281 55.003 153.281 56.3331C153.281 58.1273 154.32 59.3811 156.399 60.0808L159.945 61.3139C161.262 61.7711 161.92 62.4499 161.92 63.3436C161.92 63.974 161.608 64.4866 160.991 64.8884L160.998 64.9022Z" fill="#305B1E"/>
<path d="M112.95 123.992C111.315 122.434 109.5 121.104 107.533 120.037C112.112 115.396 114.433 109.708 114.433 103.134C114.433 96.5602 112.05 90.7481 107.346 86.0514C102.649 81.3547 96.8996 78.9647 90.2632 78.9647H62.0343V168.286H95.3687C96.477 168.286 97.5577 168.196 98.5899 168.009C103.626 167.365 108.129 165.362 111.98 162.058C117.765 157.098 120.792 150.746 120.972 143.167C121.152 135.589 118.457 129.139 112.943 123.992H112.95ZM95.3063 159.62H72.5361V126.382H95.3756L95.6458 126.355C95.909 126.306 96.1584 126.306 96.4216 126.355L96.4978 126.368C100.557 126.937 103.855 128.738 106.577 131.862C109.3 134.993 110.623 138.484 110.623 142.544C110.623 147.033 109.175 150.815 106.203 154.119C103.245 157.403 99.6844 159.204 95.3202 159.62H95.3063ZM101.479 111.475C99.8506 113.975 97.6131 115.853 94.8352 117.044C93.3597 117.668 91.8219 117.979 90.2701 117.979H72.5431V87.3607H90.187C94.1979 87.8594 97.4469 89.5705 100.1 92.5839C102.767 95.618 104.028 99.054 103.945 103.127C103.945 106.155 103.113 108.96 101.485 111.468L101.479 111.475Z" fill="#305B1E"/>
<path d="M195.282 122.579C194.887 121.305 194.395 120.065 193.813 118.894C193.529 118.236 193.203 117.536 192.809 116.74C188.541 108.399 181.808 102.622 172.796 99.5666C163.783 96.5117 154.881 97.0312 146.354 101.104C137.826 105.178 131.806 111.731 128.461 120.605C125.115 129.479 125.336 138.353 129.126 146.991C129.991 148.91 130.961 150.76 132.042 152.526C135.533 157.763 140.175 161.816 145.848 164.58C150.822 167.004 156.087 168.223 161.532 168.223C162.287 168.223 163.042 168.203 163.804 168.154C170.059 167.766 175.885 165.778 181.122 162.238C186.345 158.705 190.426 154.064 193.231 148.446L194.097 146.707L182.771 145.197L182.328 146.084C181.004 148.73 179.259 151.078 177.146 153.06C175.026 155.048 172.588 156.634 169.9 157.777C167.226 158.92 164.407 159.585 161.518 159.772C157.403 159.585 153.538 158.428 150.032 156.322C146.943 154.466 144.393 152.007 142.454 148.986L195.628 123.722L195.275 122.579H195.282ZM182.445 120.217L138.588 141.02C137.695 138.436 137.244 135.727 137.244 132.949C137.244 126.126 139.697 119.926 144.539 114.509C149.409 109.057 154.971 106.411 161.483 106.411C166.145 106.591 170.475 108.06 174.354 110.789C177.873 113.269 180.589 116.435 182.445 120.217Z" fill="#305B1E"/>
<path d="M213.999 72.6262H202.95V167.884H213.999V72.6262Z" fill="#305B1E"/>
<path d="M237.019 72.6262H225.97V167.884H237.019V72.6262Z" fill="#305B1E"/>
<path d="M305.26 98.0288V107.408C300.944 103.217 295.756 100.315 289.798 98.7769C282.67 96.9342 275.57 97.3083 268.691 99.8714C261.812 102.441 256.187 106.785 251.975 112.791C247.756 118.804 245.623 125.586 245.623 132.956C245.623 140.327 247.763 147.109 251.975 153.122C256.194 159.135 261.819 163.478 268.691 166.041C272.702 167.538 276.789 168.286 280.917 168.286C283.868 168.286 286.833 167.905 289.805 167.136C295.763 165.598 300.944 162.737 305.267 158.601V167.884H316.316V98.0288H305.267H305.26ZM305.26 133.026C305.26 139.891 302.801 146.146 297.959 151.612C293.089 157.105 287.526 159.779 280.959 159.779C274.392 159.779 268.829 157.112 263.959 151.612C259.117 146.146 256.658 139.891 256.658 133.026C256.658 126.161 259.11 119.926 263.952 114.509C268.822 109.057 274.385 106.411 280.952 106.411C287.519 106.411 293.082 109.057 297.952 114.509C302.794 119.926 305.246 126.161 305.246 133.026H305.26Z" fill="#305B1E"/>
<path d="M604.694 83.5784C602.11 81.9435 591.622 81.7495 588.831 95.722C591.248 90.8659 597.372 93.0827 598.661 93.5814C602.388 95.0292 605.172 93.9486 606.44 91.6626C607.666 89.4458 607.978 85.6566 604.694 83.5853V83.5784Z" fill="#305B1E"/>
<path d="M714.319 87.3468H688.799V76.5124V72.2383L676.988 74.836V79.6644V87.3468H658.728V96.6294H676.988V96.8026V156.412V168.258H688.799V108.475V96.8026V96.6294H714.319V87.3468Z" fill="#305B1E"/>
<path d="M604.881 97.7863H593.07V168.258H604.881V97.7863Z" fill="#305B1E"/>
<path d="M663.32 137.355C661.97 135.589 660.002 133.947 657.474 132.478C655.014 131.051 651.994 129.839 648.434 128.849C646.799 128.467 644.125 127.941 640.516 127.29C638.195 126.826 636.664 126.549 635.84 126.438C624.957 124.069 624.957 119.663 624.957 118.215C624.957 116.656 625.615 115.015 626.903 113.324C628.282 111.53 630.235 109.972 632.702 108.697C635.147 107.429 637.71 106.792 640.308 106.792C643.259 106.792 646.064 107.519 648.641 108.953C651.225 110.394 653.345 112.41 654.959 114.952L655.777 116.241L664.297 112.431L663.3 110.734C660.91 106.646 657.619 103.384 653.532 101.042C649.438 98.7007 644.991 97.5092 640.308 97.5092C632.93 97.5092 626.599 99.4697 621.493 103.342C616.235 107.325 613.568 112.334 613.568 118.222C613.568 123.099 615.404 127.345 619.013 130.857C622.518 134.259 627.388 136.635 633.505 137.916C634.302 138.076 635.618 138.339 637.447 138.706L638.479 138.907C641.769 139.454 644.125 139.918 645.489 140.279C652.244 142.01 655.673 144.504 655.673 147.691C655.673 151.127 654.246 153.773 651.315 155.775C648.212 157.895 644.423 158.976 639.954 158.976C636.193 159.142 632.639 158.304 629.397 156.468C626.155 154.639 623.599 152.014 621.805 148.675L621.188 147.525L612.55 149.25L612.91 150.988C613.942 155.955 617.191 160.139 622.553 163.43C627.769 166.63 633.748 168.251 640.315 168.251C647.595 168.251 653.885 166.291 658.991 162.418C664.249 158.435 666.916 153.475 666.916 147.677C666.916 145.917 666.652 144.186 666.133 142.516C665.606 140.833 664.657 139.087 663.327 137.341L663.32 137.355Z" fill="#305B1E"/>
<path d="M759.506 97.6478V106.522C755.274 102.608 750.252 99.8853 744.523 98.4028C737.325 96.5463 730.141 96.9135 723.186 99.5112C716.238 102.102 710.551 106.501 706.291 112.569C702.03 118.645 699.869 125.503 699.869 132.949C699.869 140.396 702.03 147.254 706.291 153.33C710.551 159.405 716.238 163.797 723.186 166.388C727.246 167.898 731.375 168.66 735.545 168.66C738.524 168.66 741.523 168.272 744.523 167.496C750.252 166.014 755.274 163.319 759.506 159.467V168.251H771.318V97.6408H759.506V97.6478ZM752.302 151.362C747.508 156.773 742.043 159.398 735.586 159.398C729.13 159.398 723.664 156.773 718.871 151.362C714.091 145.966 711.666 139.801 711.666 133.026C711.666 126.251 714.091 120.113 718.864 114.765C723.657 109.403 729.123 106.792 735.579 106.792C742.036 106.792 747.501 109.397 752.295 114.765C757.075 120.113 759.493 126.258 759.493 133.026C759.493 139.794 757.068 145.966 752.288 151.362H752.302Z" fill="#305B1E"/>
<path d="M577.899 73.506L549.483 151.425L549.061 152.879L548.687 151.542L520.292 73.506H508.28L544.219 170.052H553.91L589.849 73.506H577.899Z" fill="#305B1E"/>
<path fill-rule="evenodd" clip-rule="evenodd" d="M490.178 134.938C481.859 137.688 470.345 141.886 458.146 147.525C460.093 148.494 462.033 149.513 463.959 150.586C471.419 146.451 479.587 142.565 488.364 139.309C489.015 137.875 489.61 136.413 490.178 134.938Z" fill="#F6B72A"/>
<path fill-rule="evenodd" clip-rule="evenodd" d="M486.542 143.077C481.45 145.931 475.465 149.471 469.099 153.621C471.489 155.103 473.851 156.676 476.178 158.345C480.203 153.704 483.688 148.578 486.542 143.077Z" fill="#F6B72A"/>
<path fill-rule="evenodd" clip-rule="evenodd" d="M436.9 182.806C410.299 151.917 354.375 134.827 342.744 131.529C343.187 132.887 343.672 134.231 344.185 135.554C385.486 147.483 415.578 174.971 425.436 184.898C429.35 184.482 433.18 183.775 436.893 182.806H436.9Z" fill="#F6B72A"/>
<path fill-rule="evenodd" clip-rule="evenodd" d="M492.014 129.52C485.433 130.927 466.085 135.339 446.82 142.481C448.504 143.153 450.194 143.853 451.884 144.594C462.975 140.182 475.894 136.191 490.816 133.185C491.245 131.973 491.64 130.754 492.007 129.52H492.014Z" fill="#F6B72A"/>
<path fill-rule="evenodd" clip-rule="evenodd" d="M380.997 176.543C371.887 166.499 357.146 153.066 349.152 145.938C356.599 158.941 367.675 169.602 380.997 176.543Z" fill="#F6B72A"/>
<path fill-rule="evenodd" clip-rule="evenodd" d="M413.493 185.258C389.628 159.689 355.088 141.519 344.469 136.282C345.328 138.429 346.284 140.528 347.323 142.572C364.371 150.552 388.139 172.768 398.779 183.193C403.531 184.33 408.443 185.036 413.486 185.265L413.493 185.258Z" fill="#F6B72A"/>
<path fill-rule="evenodd" clip-rule="evenodd" d="M438.999 139.607C454.911 134.106 472.964 129.908 492.139 129.112C494.176 122.136 495.277 114.765 495.277 107.131C495.277 63.9462 460.252 28.9216 417.067 28.9216C406.295 28.9216 396.029 31.1037 386.691 35.0454C367.953 43.0118 352.934 58.0303 344.975 76.7757C341.04 86.1137 338.858 96.3731 338.858 107.138C338.858 115.555 340.195 123.667 342.661 131.266C407.3 141.643 437.863 170.523 446.176 179.751C449.155 178.552 452.044 177.181 454.821 175.643C440.863 163.915 413.25 149.263 413.25 149.263C385.673 136.053 349.346 128.952 349.346 128.952C403.954 130.463 449.889 159.897 463.862 169.81C466.023 168.196 468.087 166.471 470.068 164.649C459.629 157.126 430.271 138.588 384.19 129.95C384.19 129.95 400.573 129.804 422.041 134.799C443.336 129.895 459.546 130.033 459.546 130.033C449.183 131.973 439.671 134.418 431.026 137.127C433.645 137.875 436.312 138.706 439.006 139.62L438.999 139.607ZM461.028 105.289H458.34V102.601H461.028V105.289ZM384.751 112.659H380.463V108.371H384.751V112.659ZM384.751 106.501H380.463V102.213H384.751V106.501ZM390.91 112.659H386.622V108.371H390.91V112.659ZM390.91 106.501H386.622V102.213H390.91V106.501ZM457.17 109.147H454.482V106.459H457.17V109.147ZM457.17 105.289H454.482V102.601H457.17V105.289ZM434.753 116.012H415.266L386.428 78.6461L362.057 108.288L384.717 73.3466L429.183 92.4038L420.531 105.642L431.102 92.5215L457.752 84.9361L472.064 103.342L457.752 89.2449L434.753 116.012ZM458.34 109.147V106.459H461.028V109.147H458.34Z" fill="#F6B72A"/>
<path d="M824 108.143L823.903 96.0406C823.688 69.6267 813.346 45.0277 794.781 26.788C776.963 9.28956 753.556 -0.228606 728.936 -4.21237e-06L338.643 3.6507L95.4795 0.810494C95.1054 0.810494 94.7244 0.810494 94.3503 0.810494C69.6197 0.810494 46.2954 10.3079 28.5683 27.6193C10.578 45.194 0.505686 68.7261 0.214738 93.8793L-9.25036e-06 111.475C-0.145483 123.909 2.14747 135.817 6.41471 146.742C11.2361 161.137 19.3688 174.229 30.411 185.085C48.0203 202.382 71.0537 211.88 95.3825 211.88C95.6735 211.88 95.9644 211.88 96.2554 211.88L338.269 209.614L727.398 214.166C727.772 214.166 728.146 214.166 728.514 214.166C778.134 214.166 819.102 175.49 822.448 126.452C823.501 120.515 824.042 114.398 823.986 108.143H824ZM3.3736 115.818L3.27662 103.716C2.85405 51.4216 43.8154 8.49291 94.5997 8.01493L338.636 5.73583L729.788 10.3079C780.566 10.9036 821.395 52.6963 820.8 103.474L820.592 121.069C820.571 122.78 820.502 124.484 820.391 126.181C812.556 169.976 775.398 203.442 730.592 203.865L338.276 207.536L93.0896 204.668C54.4974 204.218 21.6549 179.965 8.37514 146.056C5.16086 136.469 3.44981 126.285 3.36668 115.818H3.3736ZM728.957 2.08512C729.241 2.08512 729.525 2.08512 729.816 2.08512C753.591 2.08512 776.118 11.3678 793.326 28.2843C808.303 42.998 817.8 61.9443 820.8 82.6362C811.78 40.6011 774.58 8.76308 729.816 8.2366L437.399 4.8145L728.957 2.08512ZM30.0231 29.1017C47.6185 11.9081 70.839 2.59775 95.4587 2.8887L239.88 4.57897L94.5789 5.93672C48.8862 6.36622 10.9729 40.3864 2.82634 84.9638C5.10544 63.7661 14.582 44.1895 30.03 29.1017H30.0231ZM96.2415 209.801C95.9575 209.801 95.6735 209.801 95.3894 209.801C71.6148 209.801 49.0871 200.519 31.8727 183.602C30.3972 182.147 28.977 180.651 27.6054 179.12C44.3973 195.926 67.5 206.449 93.0757 206.746L239.52 208.457L96.2415 209.794V209.801ZM792.862 185.874C775.266 203.061 752.053 212.371 727.426 212.087L437.032 208.693L730.613 205.95C769.683 205.583 803.066 180.658 817.017 145.578C812.667 160.728 804.437 174.569 792.862 185.881V185.874Z" fill="#F6B72A"/>
</g>
<defs>
<clipPath id="clip0_1_5">
<rect width="824" height="273.339" fill="white"/>
</clipPath>
</defs>
</svg>
