<svg viewBox="0 0 242 81" fill="none" xmlns="http://www.w3.org/2000/svg">
  <path d="M68.5619 78.2822V74.4767H69.3871V78.2822C69.3871 79.0324 69.1276 79.6589 68.6086 80.1677C68.0895 80.6685 67.4489 80.9199 66.6865 80.9199C65.9242 80.9199 65.2754 80.6685 64.7564 80.1677C64.2435 79.6609 63.986 79.0324 63.986 78.2822V74.4767H64.801V78.2822C64.801 78.8195 64.9794 79.2676 65.3363 79.6244C65.7053 79.9812 66.1553 80.1596 66.6865 80.1596C67.2177 80.1596 67.6617 79.9812 68.0186 79.6244C68.3754 79.2676 68.5619 78.8154 68.5619 78.2822Z" fill="white" />
  <path d="M70.6461 80.8185V76.1068H71.4064V76.7961C71.7633 76.271 72.2782 76.0074 72.9554 76.0074C73.294 76.0074 73.6042 76.0885 73.884 76.2527C74.1638 76.417 74.3807 76.6359 74.5328 76.9137C74.6361 76.7332 74.7963 76.5508 75.0133 76.3703C75.3032 76.1291 75.6985 76.0074 76.1993 76.0074C76.7305 76.0074 77.1725 76.1737 77.5232 76.5062C77.874 76.8387 78.0483 77.2563 78.0483 77.7571V80.8206H77.2881V77.9659C77.2881 77.6152 77.1725 77.3232 76.9434 77.086C76.7143 76.8508 76.4244 76.7332 76.0736 76.7332C75.6924 76.7332 75.3721 76.8549 75.1126 77.0962C74.8592 77.3313 74.7314 77.6253 74.7314 77.974V80.8185H73.9711V77.9639C73.9711 77.6132 73.8556 77.3212 73.6224 77.084C73.3893 76.8488 73.0973 76.7312 72.7486 76.7312C72.3674 76.7312 72.0471 76.8529 71.7876 77.0941C71.5342 77.3293 71.4064 77.6233 71.4064 77.972V80.8165H70.6461V80.8185Z" fill="white" />
  <path d="M81.8092 80.8185V74.0226H82.5695V76.8954C82.9446 76.3034 83.5062 76.0074 84.2543 76.0074C84.7977 76.0074 85.2539 76.1858 85.6229 76.5427C85.9858 76.8934 86.1662 77.3394 86.1662 77.8848V80.8206H85.4059V78.0835C85.4059 77.7024 85.2762 77.382 85.0167 77.1225C84.7571 76.863 84.4328 76.7332 84.0475 76.7332C83.6299 76.7332 83.2812 76.8671 82.9973 77.1326C82.7135 77.3982 82.5716 77.7226 82.5716 78.1018V80.8206H81.8113L81.8092 80.8185Z" fill="white" />
  <path d="M87.8895 80.2204C87.4253 79.744 87.1921 79.1581 87.1921 78.4626C87.1921 77.7672 87.4253 77.1793 87.8895 76.713C88.3538 76.2466 88.9458 76.0054 89.6473 76.0054C90.3488 76.0054 90.9348 76.2406 91.4051 76.713C91.8755 77.1772 92.1127 77.7611 92.1127 78.4626C92.1127 79.1641 91.8775 79.7501 91.4051 80.2204C90.9287 80.6847 90.3428 80.9179 89.6473 80.9179C88.9519 80.9179 88.366 80.6847 87.8895 80.2204ZM89.6473 80.1576C90.1238 80.1576 90.5232 79.9974 90.8435 79.6771C91.1639 79.3446 91.324 78.9411 91.324 78.4626C91.324 77.9842 91.1639 77.5766 90.8435 77.2583C90.5232 76.9319 90.1238 76.7697 89.6473 76.7697C89.1709 76.7697 88.7735 76.9319 88.4613 77.2583C88.1409 77.5787 87.9808 77.9801 87.9808 78.4626C87.9808 78.9452 88.1409 79.3446 88.4613 79.6771C88.7816 79.9974 89.177 80.1576 89.6473 80.1576Z" fill="white" />
  <path d="M93.9171 78.1545V80.8185H93.1568V76.1068H93.9171V76.9035C94.274 76.3055 94.8315 76.0074 95.5938 76.0074H95.7195V76.8508C95.6222 76.8143 95.5107 76.7961 95.385 76.7961C94.9674 76.7961 94.6207 76.9258 94.3429 77.1854C94.0591 77.451 93.9171 77.7733 93.9171 78.1545Z" fill="white" />
  <path d="M96.5528 75.3364C96.4555 75.233 96.4089 75.1072 96.4089 74.9552C96.4089 74.8031 96.4575 74.6795 96.5528 74.5842C96.6562 74.4808 96.7819 74.4301 96.934 74.4301C97.086 74.4301 97.2117 74.4808 97.3151 74.5842C97.4185 74.6815 97.4692 74.8052 97.4692 74.9552C97.4692 75.1052 97.4185 75.233 97.3151 75.3364C97.2117 75.4337 97.086 75.4823 96.934 75.4823C96.7819 75.4823 96.6562 75.4337 96.5528 75.3364ZM97.3131 80.8186H96.5528V76.1068H97.3131V80.8186Z" fill="white" />
  <path d="M98.3207 80.8185V80.2286L101.113 76.8123H98.3674V76.1047H102.155V76.6947L99.3628 80.111H102.199V80.8185H98.3207Z" fill="white" />
  <path d="M103.466 80.2204C103.002 79.744 102.769 79.1581 102.769 78.4626C102.769 77.7672 103.002 77.1793 103.466 76.713C103.931 76.2466 104.523 76.0054 105.224 76.0054C105.926 76.0054 106.512 76.2406 106.982 76.713C107.452 77.1772 107.69 77.7611 107.69 78.4626C107.69 79.1641 107.454 79.7501 106.982 80.2204C106.506 80.6847 105.92 80.9179 105.224 80.9179C104.529 80.9179 103.943 80.6847 103.466 80.2204ZM105.224 80.1576C105.701 80.1576 106.1 79.9974 106.42 79.6771C106.741 79.3446 106.901 78.9411 106.901 78.4626C106.901 77.9842 106.741 77.5766 106.42 77.2583C106.1 76.9319 105.701 76.7697 105.224 76.7697C104.748 76.7697 104.35 76.9319 104.038 77.2583C103.718 77.5787 103.558 77.9801 103.558 78.4626C103.558 78.9452 103.718 79.3446 104.038 79.6771C104.358 79.9974 104.754 80.1576 105.224 80.1576Z" fill="white" />
  <path d="M108.732 80.8185V76.1068H109.492V76.8954C109.867 76.3034 110.425 76.0074 111.169 76.0074C111.712 76.0074 112.162 76.1858 112.519 76.5427C112.882 76.8934 113.062 77.3394 113.062 77.8848V80.8206H112.302V78.0835C112.302 77.7024 112.172 77.382 111.913 77.1225C111.659 76.863 111.341 76.7332 110.962 76.7332C110.55 76.7332 110.204 76.867 109.92 77.1326C109.636 77.3982 109.494 77.7226 109.494 78.1018V80.8206H108.734L108.732 80.8185Z" fill="white" />
  <path d="M113.825 76.7779V76.1068H114.585V75.164H115.345V76.1068H116.659V76.7779H115.345V79.3426C115.345 79.5534 115.41 79.7318 115.54 79.8717C115.67 80.0137 115.832 80.0846 116.024 80.0846H116.659V80.8186H115.97C115.576 80.8186 115.248 80.6847 114.982 80.4191C114.717 80.1535 114.583 79.8251 114.583 79.4318V76.7758H113.823L113.825 76.7779Z" fill="white" />
  <path d="M122.17 78.7262H118.119C118.173 79.15 118.36 79.5027 118.68 79.7866C118.995 80.0643 119.382 80.2042 119.84 80.2042C120.438 80.2042 120.902 79.9771 121.235 79.525L121.979 79.7602C121.762 80.1231 121.464 80.407 121.087 80.6117C120.71 80.8165 120.294 80.9199 119.84 80.9199C119.126 80.9199 118.528 80.6868 118.046 80.2225C117.569 79.7521 117.33 79.1662 117.33 78.4647C117.33 77.7632 117.563 77.1813 118.027 76.715C118.492 76.2446 119.07 76.0074 119.759 76.0074C120.448 76.0074 121.03 76.2426 121.49 76.715C121.955 77.1793 122.188 77.7632 122.188 78.4647C122.188 78.4829 122.182 78.5701 122.17 78.7282V78.7262ZM121.399 78.1099C121.326 77.7044 121.136 77.3699 120.827 77.1043C120.525 76.8447 120.162 76.715 119.741 76.715C119.319 76.715 118.976 76.8447 118.68 77.1043C118.384 77.3638 118.2 77.6983 118.127 78.1099H121.399Z" fill="white" />
  <path d="M127.715 76.0074C128.422 76.0074 128.996 76.2649 129.436 76.7778V74.0226H130.196V80.8185H129.436V80.1475C128.994 80.6604 128.42 80.9179 127.715 80.9179C127.056 80.9179 126.504 80.6847 126.056 80.2204C125.614 79.7562 125.395 79.1702 125.395 78.4626C125.395 77.7551 125.616 77.1732 126.056 76.713C126.496 76.2426 127.05 76.0054 127.715 76.0054V76.0074ZM127.796 76.7677C127.342 76.7677 126.958 76.9299 126.644 77.2563C126.336 77.5767 126.182 77.9781 126.182 78.4606C126.182 78.9432 126.336 79.3486 126.644 79.6751C126.964 79.9954 127.348 80.1556 127.796 80.1556C128.244 80.1556 128.639 79.9954 128.947 79.6751C129.262 79.3547 129.418 78.9492 129.418 78.4606C129.418 77.972 129.26 77.5706 128.947 77.2563C128.639 76.9299 128.256 76.7677 127.796 76.7677Z" fill="white" />
  <path d="M136.078 78.7262H132.027C132.082 79.15 132.268 79.5027 132.589 79.7866C132.903 80.0643 133.29 80.2042 133.748 80.2042C134.346 80.2042 134.811 79.9771 135.143 79.525L135.887 79.7602C135.67 80.1231 135.372 80.407 134.995 80.6117C134.618 80.8165 134.202 80.9199 133.748 80.9199C133.035 80.9199 132.437 80.6868 131.954 80.2225C131.478 79.7521 131.238 79.1662 131.238 78.4647C131.238 77.7632 131.471 77.1813 131.936 76.715C132.4 76.2446 132.978 76.0074 133.667 76.0074C134.357 76.0074 134.938 76.2426 135.399 76.715C135.863 77.1793 136.096 77.7632 136.096 78.4647C136.096 78.4829 136.09 78.5701 136.078 78.7282V78.7262ZM135.307 78.1099C135.234 77.7044 135.044 77.3699 134.736 77.1043C134.434 76.8447 134.071 76.715 133.649 76.715C133.227 76.715 132.885 76.8447 132.589 77.1043C132.293 77.3638 132.108 77.6983 132.035 78.1099H135.307Z" fill="white" />
  <path d="M144.143 78.7262H140.092C140.147 79.15 140.333 79.5027 140.654 79.7866C140.968 80.0643 141.355 80.2042 141.813 80.2042C142.412 80.2042 142.876 79.9771 143.208 79.525L143.952 79.7602C143.735 80.1231 143.437 80.407 143.06 80.6117C142.683 80.8165 142.268 80.9199 141.813 80.9199C141.1 80.9199 140.502 80.6868 140.019 80.2225C139.543 79.7521 139.303 79.1662 139.303 78.4647C139.303 77.7632 139.537 77.1813 140.001 76.715C140.465 76.2446 141.043 76.0074 141.732 76.0074C142.422 76.0074 143.004 76.2426 143.464 76.715C143.928 77.1793 144.161 77.7632 144.161 78.4647C144.161 78.4829 144.155 78.5701 144.143 78.7282V78.7262ZM143.373 78.1099C143.3 77.7044 143.109 77.3699 142.801 77.1043C142.499 76.8447 142.136 76.715 141.714 76.715C141.292 76.715 140.95 76.8447 140.654 77.1043C140.358 77.3638 140.173 77.6983 140.1 78.1099H143.373Z" fill="white" />
  <path d="M148.33 77.1306L147.614 77.2584C147.565 77.0779 147.452 76.936 147.273 76.8326C147.095 76.7292 146.87 76.6785 146.598 76.6785C146.327 76.6785 146.122 76.7353 145.949 76.8508C145.777 76.9664 145.692 77.1144 145.692 77.2949C145.692 77.5483 145.858 77.7328 146.191 77.8484L147.342 78.2559C148.062 78.5215 148.421 78.9513 148.421 79.5433C148.421 79.9731 148.259 80.3097 147.932 80.5529C147.606 80.7983 147.18 80.9199 146.655 80.9199C146.13 80.9199 145.741 80.8104 145.418 80.5895C145.096 80.3685 144.901 80.0684 144.834 79.6872L145.55 79.5595C145.599 79.7643 145.724 79.9305 145.925 80.0583C146.128 80.184 146.377 80.2488 146.673 80.2488C146.969 80.2488 147.206 80.186 147.403 80.0583C147.6 79.9305 147.697 79.7683 147.697 79.5696C147.697 79.2858 147.488 79.0709 147.073 78.9269L145.949 78.5377C145.291 78.3147 144.962 77.9193 144.962 77.3496C144.962 76.9279 145.118 76.5974 145.428 76.3622C145.739 76.127 146.148 76.0095 146.657 76.0095C147.109 76.0095 147.486 76.1108 147.784 76.3136C148.082 76.5163 148.267 76.79 148.332 77.1327L148.33 77.1306Z" fill="white" />
  <path d="M153.911 77.4307L153.151 77.6578C153.011 77.3861 152.81 77.1691 152.549 77.009C152.285 76.8488 151.991 76.7697 151.665 76.7697C151.188 76.7697 150.791 76.9319 150.479 77.2583C150.158 77.5787 149.998 77.9801 149.998 78.4626C149.998 78.9452 150.158 79.3446 150.479 79.6771C150.799 79.9974 151.194 80.1576 151.665 80.1576C151.991 80.1576 152.285 80.0785 152.549 79.9184C152.812 79.7582 153.013 79.5433 153.151 79.2696L153.911 79.4966C153.719 79.9386 153.421 80.2853 153.019 80.5388C152.618 80.7922 152.166 80.9199 151.665 80.9199C150.969 80.9199 150.383 80.6868 149.907 80.2225C149.443 79.746 149.21 79.1601 149.21 78.4647C149.21 77.7693 149.443 77.1813 149.907 76.715C150.371 76.2487 150.963 76.0074 151.665 76.0074C152.166 76.0074 152.618 76.1351 153.019 76.3886C153.421 76.642 153.719 76.9907 153.911 77.4307Z" fill="white" />
  <path d="M155.334 80.2204C154.87 79.744 154.637 79.1581 154.637 78.4626C154.637 77.7672 154.87 77.1793 155.334 76.713C155.799 76.2466 156.391 76.0054 157.092 76.0054C157.794 76.0054 158.38 76.2406 158.85 76.713C159.32 77.1772 159.558 77.7611 159.558 78.4626C159.558 79.1641 159.322 79.7501 158.85 80.2204C158.374 80.6847 157.788 80.9179 157.092 80.9179C156.397 80.9179 155.811 80.6847 155.334 80.2204ZM157.092 80.1576C157.569 80.1576 157.968 79.9974 158.288 79.6771C158.609 79.3446 158.769 78.9411 158.769 78.4626C158.769 77.9842 158.609 77.5766 158.288 77.2583C157.968 76.9319 157.569 76.7697 157.092 76.7697C156.616 76.7697 156.218 76.9319 155.906 77.2583C155.586 77.5787 155.426 77.9801 155.426 78.4626C155.426 78.9452 155.586 79.3446 155.906 79.6771C156.227 79.9974 156.622 80.1576 157.092 80.1576Z" fill="white" />
  <path d="M161.36 80.8185H160.6V74.0226H161.36V80.8185Z" fill="white" />
  <path d="M162.645 80.8185V74.0226H163.406V76.8954C163.781 76.3034 164.342 76.0074 165.091 76.0074C165.634 76.0074 166.09 76.1858 166.459 76.5427C166.822 76.8934 167.002 77.3394 167.002 77.8848V80.8206H166.242V78.0835C166.242 77.7024 166.112 77.382 165.853 77.1225C165.593 76.863 165.269 76.7332 164.884 76.7332C164.466 76.7332 164.117 76.8671 163.834 77.1326C163.55 77.3982 163.408 77.7226 163.408 78.1018V80.8206H162.647L162.645 80.8185Z" fill="white" />
  <path d="M170.348 76.0074C171.055 76.0074 171.629 76.2649 172.069 76.7778V76.1068H172.829V80.8185H172.069V80.1474C171.627 80.6604 171.053 80.9179 170.348 80.9179C169.689 80.9179 169.137 80.6847 168.689 80.2204C168.247 79.7561 168.028 79.1702 168.028 78.4626C168.028 77.7551 168.249 77.1732 168.689 76.713C169.129 76.2426 169.683 76.0054 170.348 76.0054V76.0074ZM170.429 76.7677C169.975 76.7677 169.591 76.9299 169.277 77.2563C168.969 77.5767 168.815 77.9781 168.815 78.4606C168.815 78.9432 168.969 79.3486 169.277 79.675C169.598 79.9954 169.981 80.1556 170.429 80.1556C170.877 80.1556 171.272 79.9954 171.58 79.675C171.895 79.3547 172.051 78.9492 172.051 78.4606C172.051 77.972 171.893 77.5706 171.58 77.2563C171.272 76.9299 170.889 76.7677 170.429 76.7677Z" fill="white" />
  <path d="M177.316 77.1306L176.6 77.2584C176.552 77.0779 176.438 76.936 176.26 76.8326C176.081 76.7292 175.856 76.6785 175.585 76.6785C175.313 76.6785 175.108 76.7353 174.936 76.8508C174.763 76.9664 174.678 77.1144 174.678 77.2949C174.678 77.5483 174.845 77.7328 175.177 77.8484L176.329 78.2559C177.048 78.5215 177.407 78.9513 177.407 79.5433C177.407 79.9731 177.245 80.3097 176.919 80.5529C176.592 80.7983 176.166 80.9199 175.641 80.9199C175.116 80.9199 174.727 80.8104 174.405 80.5895C174.082 80.3685 173.888 80.0684 173.821 79.6872L174.536 79.5595C174.585 79.7643 174.711 79.9305 174.911 80.0583C175.114 80.184 175.364 80.2488 175.66 80.2488C175.956 80.2488 176.193 80.186 176.389 80.0583C176.586 79.9305 176.683 79.7683 176.683 79.5696C176.683 79.2858 176.475 79.0709 176.059 78.9269L174.936 78.5377C174.277 78.3147 173.948 77.9193 173.948 77.3496C173.948 76.9279 174.105 76.5974 174.415 76.3622C174.725 76.127 175.134 76.0095 175.643 76.0095C176.095 76.0095 176.473 76.1108 176.771 76.3136C177.069 76.5163 177.253 76.79 177.318 77.1327L177.316 77.1306Z" fill="white" />
  <path d="M19.0781 14.7543H18.3239V20.6197H19.0781V14.7543Z" fill="white" />
  <path d="M21.0305 17.9881C21.0305 17.6637 21.1481 17.394 21.3833 17.1751C21.6226 16.952 21.9206 16.8405 22.2713 16.8405C22.5957 16.8405 22.8654 16.95 23.0803 17.167C23.2952 17.3859 23.4026 17.6556 23.4026 17.98V20.6197H24.1062V17.9881C24.1062 17.6637 24.2238 17.394 24.4589 17.1751C24.6982 16.952 24.9962 16.8405 25.347 16.8405C25.6714 16.8405 25.939 16.95 26.1519 17.167C26.3647 17.3859 26.4702 17.6556 26.4702 17.98V20.6197H27.1737V17.7873C27.1737 17.3231 27.0115 16.9378 26.6871 16.6317C26.3627 16.3235 25.9552 16.1715 25.4646 16.1715C25.0003 16.1715 24.6353 16.283 24.3657 16.506C24.165 16.6743 24.017 16.8405 23.9217 17.0088C23.7818 16.7513 23.5831 16.5486 23.3216 16.3965C23.06 16.2445 22.7762 16.1694 22.4619 16.1694C21.8354 16.1694 21.359 16.4127 21.0285 16.8993V16.2627H20.325V20.6197H21.0285V17.9881H21.0305Z" fill="white" />
  <path d="M31.7071 14.803L31.3725 14.1745L29.8479 15.1639L30.0892 15.5998L31.7071 14.803Z" fill="white" />
  <path d="M30.3993 20.7109C31.042 20.7109 31.5834 20.496 32.0254 20.0662C32.4613 19.6303 32.6782 19.089 32.6782 18.4402C32.6782 17.7914 32.4613 17.2521 32.0254 16.8223C31.5895 16.3864 31.0481 16.1694 30.3993 16.1694C29.7506 16.1694 29.2092 16.3864 28.7733 16.8223C28.3374 17.2582 28.1286 17.7914 28.1286 18.4402C28.1286 19.089 28.3435 19.6242 28.7733 20.0662C29.2153 20.496 29.7566 20.7109 30.3993 20.7109ZM29.3025 17.3251C29.5924 17.023 29.9594 16.873 30.3993 16.873C30.8393 16.873 31.2103 17.023 31.5063 17.3251C31.8023 17.6211 31.9503 17.9921 31.9503 18.4402C31.9503 18.8883 31.8023 19.2552 31.5063 19.5634C31.2103 19.8594 30.8413 20.0074 30.3993 20.0074C29.9574 20.0074 29.5985 19.8594 29.3025 19.5634C29.0065 19.2572 28.8585 18.8822 28.8585 18.4402C28.8585 17.9982 29.0065 17.6211 29.3025 17.3251Z" fill="white" />
  <path d="M36.6844 16.2627L35.2105 19.7134L33.7446 16.2627H33.0148L34.8922 20.6197H35.5369L37.4143 16.2627H36.6844Z" fill="white" />
  <path d="M40.0621 20.7109C40.4818 20.7109 40.865 20.6157 41.2137 20.4251C41.5625 20.2345 41.8382 19.973 42.0389 19.6364L41.3516 19.4195C41.0434 19.8391 40.6136 20.048 40.0601 20.048C39.6364 20.048 39.2775 19.9202 38.9876 19.6628C38.6916 19.4012 38.5172 19.0728 38.4686 18.6815H42.2153C42.2275 18.5355 42.2315 18.4544 42.2315 18.4382C42.2315 17.7894 42.0166 17.2501 41.5868 16.8203C41.1631 16.3844 40.6278 16.1674 39.9871 16.1674C39.3465 16.1674 38.8173 16.3844 38.3875 16.8203C37.9577 17.2501 37.7428 17.7894 37.7428 18.4382C37.7428 19.087 37.9637 19.6283 38.4057 20.0642C38.8518 20.494 39.4053 20.7089 40.0642 20.7089L40.0621 20.7109ZM38.9896 17.1832C39.2633 16.944 39.5898 16.8223 39.9689 16.8223C40.348 16.8223 40.6947 16.9419 40.9745 17.1832C41.2604 17.4285 41.4347 17.7387 41.5016 18.1138H38.4767C38.5436 17.7347 38.7139 17.4245 38.9876 17.1832H38.9896Z" fill="white" />
  <path d="M43.8332 16.2627H43.1297V20.6197H43.8332V16.2627Z" fill="white" />
  <path d="M43.4804 15.6829C43.6203 15.6829 43.7379 15.6383 43.8332 15.5491C43.9285 15.4538 43.9751 15.3362 43.9751 15.1963C43.9751 15.0564 43.9285 14.9429 43.8332 14.8537C43.7379 14.7584 43.6203 14.7117 43.4804 14.7117C43.3405 14.7117 43.2229 14.7584 43.1277 14.8537C43.0384 14.9429 42.9938 15.0584 42.9938 15.1963C42.9938 15.3342 43.0384 15.4538 43.1277 15.5491C43.2229 15.6383 43.3405 15.6829 43.4804 15.6829Z" fill="white" />
  <path d="M47.1217 19.9162C46.9392 20.0338 46.7162 20.0926 46.4466 20.0926C46.1769 20.0926 45.9417 20.0338 45.7552 19.9162C45.5687 19.7986 45.4511 19.6445 45.4085 19.4559L44.7455 19.5735C44.8064 19.9263 44.9868 20.2041 45.2869 20.4068C45.5849 20.6116 45.9661 20.7129 46.4304 20.7129C46.8946 20.7129 47.3103 20.5994 47.6124 20.3744C47.9144 20.1473 48.0645 19.8371 48.0645 19.4397C48.0645 18.8923 47.732 18.4949 47.067 18.2496L46.0026 17.8725C45.6944 17.7671 45.5423 17.5968 45.5423 17.3616C45.5423 17.1933 45.6214 17.0575 45.7816 16.95C45.9417 16.8426 46.1404 16.7898 46.3817 16.7898C46.623 16.7898 46.8419 16.8365 47.0061 16.9318C47.1704 17.0271 47.2758 17.1588 47.3204 17.3251L47.9813 17.2075C47.9205 16.8892 47.7502 16.6358 47.4745 16.4492C47.1987 16.2627 46.85 16.1694 46.4304 16.1694C45.962 16.1694 45.5829 16.2789 45.295 16.4959C45.0071 16.7128 44.8631 17.0189 44.8631 17.4082C44.8631 17.9333 45.1673 18.3003 45.7755 18.5051L46.8135 18.8659C47.1987 18.9998 47.3914 19.1985 47.3914 19.46C47.3914 19.6445 47.3001 19.7945 47.1197 19.9121L47.1217 19.9162Z" fill="white" />
  <path d="M33.0594 37.2103C32.5809 36.7541 32.0497 36.3648 31.4739 36.0526C32.814 34.6942 33.4932 33.0297 33.4932 31.1056C33.4932 29.1816 32.7958 27.4806 31.4192 26.106C30.0445 24.7314 28.3618 24.0319 26.4195 24.0319H18.1576V50.1738H27.9137C28.2381 50.1738 28.5544 50.1474 28.8565 50.0927C30.3304 49.9041 31.6483 49.3182 32.7755 48.3511C34.4684 46.8994 35.3544 45.0403 35.4071 42.8222C35.4599 40.6042 34.6712 38.7167 33.0573 37.2103H33.0594ZM21.2313 47.6374V37.9097H27.9157L27.9948 37.9016C28.0718 37.8874 28.1448 37.8874 28.2219 37.9016L28.2442 37.9057C29.4323 38.0719 30.3973 38.5991 31.1941 39.5135C31.9909 40.4299 32.3781 41.4517 32.3781 42.6398C32.3781 43.9536 31.9544 45.0605 31.0846 46.0276C30.2189 46.9886 29.1768 47.5158 27.8995 47.6374H21.2313ZM29.7019 33.5467C29.2255 34.2786 28.5706 34.828 27.7576 35.1768C27.3257 35.3592 26.8757 35.4505 26.4215 35.4505H21.2333V26.4892H26.3972C27.5711 26.6351 28.5219 27.1359 29.2984 28.0178C30.079 28.9059 30.448 29.9115 30.4237 31.1036C30.4237 31.9896 30.1804 32.8107 29.7039 33.5447L29.7019 33.5467Z" fill="white" />
  <path d="M57.1555 36.7967C57.04 36.4236 56.896 36.0607 56.7257 35.7181C56.6426 35.5255 56.5473 35.3207 56.4317 35.0875C55.1828 32.6465 53.2122 30.9556 50.5744 30.0615C47.9367 29.1674 45.3315 29.3195 42.8357 30.5116C40.3399 31.7037 38.5781 33.6217 37.5988 36.2189C36.6196 38.816 36.6844 41.4132 37.7934 43.9414C38.0469 44.503 38.3307 45.0443 38.647 45.5613C39.6688 47.0941 41.0272 48.2801 42.6877 49.0891C44.1434 49.7987 45.6842 50.1555 47.2778 50.1555C47.4988 50.1555 47.7198 50.1494 47.9428 50.1352C49.7736 50.0217 51.4787 49.4398 53.0114 48.4038C54.5401 47.3698 55.7343 46.0114 56.5554 44.3672L56.8088 43.8583L53.494 43.4163L53.3642 43.6758C52.977 44.4503 52.4661 45.1376 51.8477 45.7174C51.2273 46.2993 50.5136 46.7636 49.727 47.0981C48.9444 47.4326 48.1192 47.6273 47.2738 47.682C46.0695 47.6273 44.9382 47.2887 43.9123 46.6724C43.008 46.129 42.2619 45.4093 41.6942 44.5253L57.2569 37.1312L57.1535 36.7967H57.1555ZM53.3987 36.1053L40.5629 42.1937C40.3014 41.4375 40.1696 40.6448 40.1696 39.8318C40.1696 37.8347 40.8873 36.0202 42.3045 34.4347C43.7298 32.8391 45.3578 32.0646 47.2636 32.0646C48.6281 32.1173 49.8953 32.5472 51.0306 33.346C52.0606 34.0718 52.8553 34.9983 53.3987 36.1053Z" fill="white" />
  <path d="M62.6337 22.1768H59.3999V50.0562H62.6337V22.1768Z" fill="white" />
  <path d="M69.3709 22.1768H66.1371V50.0562H69.3709V22.1768Z" fill="white" />
  <path d="M89.3432 29.6114V32.3566C88.0801 31.13 86.5616 30.2805 84.818 29.8304C82.7317 29.2911 80.6536 29.4006 78.6403 30.1507C76.6271 30.9029 74.9808 32.1741 73.7481 33.9319C72.5134 35.6917 71.889 37.6766 71.889 39.8338C71.889 41.991 72.5154 43.9758 73.7481 45.7357C74.9828 47.4955 76.6291 48.7667 78.6403 49.5169C79.8142 49.9548 81.0104 50.1737 82.2188 50.1737C83.0825 50.1737 83.9502 50.0622 84.82 49.8372C86.5636 49.3871 88.0801 48.5498 89.3453 47.3394V50.0562H92.579V29.6114H89.3432ZM89.3432 39.8541C89.3432 41.8633 88.6235 43.694 87.2063 45.2937C85.781 46.9015 84.153 47.684 82.2309 47.684C80.3089 47.684 78.6809 46.9035 77.2556 45.2937C75.8384 43.694 75.1187 41.8633 75.1187 39.8541C75.1187 37.8449 75.8364 36.0202 77.2536 34.4347C78.6789 32.8391 80.3069 32.0646 82.2289 32.0646C84.1509 32.0646 85.779 32.8391 87.2043 34.4347C88.6214 36.0202 89.3392 37.8449 89.3392 39.8541H89.3432Z" fill="white" />
  <path d="M176.979 25.3822C176.223 24.9037 173.154 24.8469 172.337 28.9363C173.044 27.515 174.836 28.1638 175.214 28.3098C176.304 28.7335 177.119 28.4172 177.49 27.7482C177.849 27.0994 177.94 25.9904 176.979 25.3842V25.3822Z" fill="white" />
  <path d="M209.064 26.4851H201.595V22.0632L198.138 22.8235V26.4851H192.794V29.2019H198.138V50.1656H201.595V29.2019H209.064V26.4851Z" fill="white" />
  <path d="M177.034 29.5404H173.577V50.1656H177.034V29.5404Z" fill="white" />
  <path d="M194.138 41.1212C193.742 40.6042 193.167 40.1237 192.427 39.6939C191.707 39.2762 190.823 38.9214 189.781 38.6315C189.302 38.52 188.52 38.3659 187.463 38.1753C186.784 38.0395 186.336 37.9584 186.095 37.926C182.91 37.2326 182.91 35.9431 182.91 35.5194C182.91 35.0632 183.102 34.5827 183.479 34.088C183.883 33.5629 184.455 33.1067 185.176 32.7337C185.892 32.3627 186.642 32.1761 187.403 32.1761C188.266 32.1761 189.087 32.389 189.842 32.8087C190.598 33.2304 191.218 33.8204 191.691 34.5645L191.93 34.9416L194.424 33.8265L194.132 33.3297C193.432 32.1336 192.469 31.1786 191.273 30.4934C190.075 29.8081 188.773 29.4594 187.403 29.4594C185.243 29.4594 183.39 30.0331 181.896 31.1665C180.357 32.3322 179.577 33.7981 179.577 35.5214C179.577 36.9487 180.114 38.1916 181.17 39.2195C182.196 40.2149 183.621 40.9104 185.412 41.2854C185.645 41.3321 186.03 41.4091 186.565 41.5166L186.867 41.5754C187.83 41.7355 188.52 41.8714 188.919 41.9768C190.896 42.4837 191.899 43.2135 191.899 44.1462C191.899 45.1518 191.482 45.9263 190.624 46.5122C189.716 47.1326 188.607 47.4489 187.299 47.4489C186.198 47.4975 185.158 47.2522 184.209 46.7149C183.26 46.1797 182.512 45.4113 181.987 44.4341L181.807 44.0975L179.279 44.6023L179.384 45.1112C179.686 46.5649 180.637 47.7895 182.206 48.7525C183.733 49.6892 185.483 50.1636 187.405 50.1636C189.535 50.1636 191.376 49.5898 192.871 48.4565C194.409 47.2907 195.19 45.8391 195.19 44.1421C195.19 43.6271 195.113 43.1203 194.961 42.6317C194.807 42.139 194.529 41.6281 194.14 41.1172L194.138 41.1212Z" fill="white" />
  <path d="M222.289 32.097C221.05 30.9515 219.58 30.1548 217.903 29.7209C215.797 29.1775 213.694 29.285 211.659 30.0453C209.625 30.8035 207.961 32.091 206.714 33.867C205.467 35.6451 204.835 37.6522 204.835 39.8317C204.835 42.0112 205.467 44.0184 206.714 45.7965C207.961 47.5745 209.625 48.8599 211.659 49.6182C212.847 50.0602 214.055 50.2832 215.276 50.2832C216.148 50.2832 217.026 50.1697 217.903 49.9426C219.58 49.5087 221.05 48.7201 222.289 47.5928V50.1636H225.746V29.4979H222.289V32.097ZM220.18 45.2207C218.777 46.8041 217.178 47.5725 215.288 47.5725C213.398 47.5725 211.799 46.8041 210.396 45.2207C208.997 43.6413 208.287 41.8369 208.287 39.854C208.287 37.8712 208.997 36.0749 210.394 34.5097C211.797 32.9405 213.396 32.1761 215.286 32.1761C217.176 32.1761 218.775 32.9384 220.178 34.5097C221.577 36.0749 222.285 37.8732 222.285 39.854C222.285 41.8349 221.575 43.6413 220.176 45.2207H220.18Z" fill="white" />
  <path d="M169.137 22.4343L160.821 45.2389L160.697 45.6647L160.588 45.2734L152.277 22.4343H148.762L159.28 50.6907H162.116L172.635 22.4343H169.137Z" fill="white" />
  <path fill-rule="evenodd" clip-rule="evenodd" d="M143.464 40.4136C141.029 41.2185 137.659 42.4472 134.089 44.0975C134.659 44.3813 135.226 44.6794 135.79 44.9936C137.973 43.7832 140.364 42.6458 142.933 41.6929C143.123 41.2733 143.298 40.8455 143.464 40.4136Z" fill="white" />
  <path fill-rule="evenodd" clip-rule="evenodd" d="M142.399 42.7959C140.909 43.6312 139.158 44.6672 137.294 45.8816C137.994 46.3155 138.685 46.7758 139.366 47.2644C140.544 45.906 141.564 44.4057 142.399 42.7959Z" fill="white" />
  <path fill-rule="evenodd" clip-rule="evenodd" d="M127.871 54.4232C120.085 45.3829 103.718 40.3812 100.314 39.4161C100.443 39.8135 100.585 40.2068 100.735 40.594C112.823 44.0853 121.63 52.1302 124.515 55.0355C125.661 54.9139 126.782 54.7071 127.869 54.4232H127.871Z" fill="white" />
  <path fill-rule="evenodd" clip-rule="evenodd" d="M144.001 38.8282C142.075 39.2398 136.412 40.5312 130.774 42.6215C131.267 42.8182 131.761 43.023 132.256 43.2399C135.502 41.9484 139.283 40.7806 143.65 39.9007C143.776 39.5459 143.892 39.1891 143.999 38.8282H144.001Z" fill="white" />
  <path fill-rule="evenodd" clip-rule="evenodd" d="M111.509 52.5905C108.843 49.6507 104.529 45.7194 102.189 43.6332C104.369 47.4387 107.61 50.559 111.509 52.5905Z" fill="white" />
  <path fill-rule="evenodd" clip-rule="evenodd" d="M121.02 55.141C114.035 47.6577 103.927 42.3397 100.819 40.8069C101.07 41.4354 101.35 42.0498 101.654 42.6479C106.643 44.9835 113.6 51.4855 116.714 54.5368C118.105 54.8693 119.542 55.0761 121.018 55.143L121.02 55.141Z" fill="white" />
  <path fill-rule="evenodd" clip-rule="evenodd" d="M128.485 41.7801C133.142 40.1703 138.426 38.9417 144.038 38.7085C144.634 36.6669 144.956 34.5097 144.956 32.2755C144.956 19.6364 134.705 9.38564 122.066 9.38564C118.913 9.38564 115.909 10.0243 113.176 11.1779C107.692 13.5095 103.296 17.905 100.967 23.3912C99.815 26.1242 99.1763 29.1269 99.1763 32.2775C99.1763 34.7408 99.5676 37.115 100.289 39.3391C119.207 42.3762 128.153 50.8286 130.585 53.5292C131.457 53.1784 132.303 52.777 133.116 52.3269C129.03 48.8944 120.949 44.6064 120.949 44.6064C112.878 40.74 102.246 38.6619 102.246 38.6619C118.228 39.1039 131.672 47.7185 135.762 50.6198C136.394 50.1474 136.998 49.6425 137.578 49.1093C134.523 46.9075 125.93 41.4821 112.444 38.9539C112.444 38.9539 117.239 38.9113 123.522 40.3731C129.754 38.9376 134.498 38.9782 134.498 38.9782C131.465 39.5459 128.682 40.2616 126.151 41.0543C126.918 41.2733 127.698 41.5166 128.487 41.7842L128.485 41.7801ZM134.932 31.7362H134.146V30.9495H134.932V31.7362ZM112.608 33.8934H111.353V32.6384H112.608V33.8934ZM112.608 32.091H111.353V30.836H112.608V32.091ZM114.411 33.8934H113.156V32.6384H114.411V33.8934ZM114.411 32.091H113.156V30.836H114.411V32.091ZM133.803 32.8655H133.016V32.0788H133.803V32.8655ZM133.803 31.7362H133.016V30.9495H133.803V31.7362ZM127.242 34.8746H121.539L113.099 23.9386L105.966 32.6141L112.598 22.3876L125.612 27.9651L123.08 31.8396L126.174 27.9996L133.973 25.7795L138.162 31.1665L133.973 27.0406L127.242 34.8746ZM134.146 32.8655V32.0788H134.932V32.8655H134.146Z" fill="white" />
  <path d="M241.164 32.5715L241.136 29.0296C241.073 21.2989 238.046 14.0995 232.613 8.76122C227.398 3.6399 220.547 0.854194 213.342 0.9211L99.1135 1.98956L27.9462 1.15831C27.8367 1.15831 27.7252 1.15831 27.6157 1.15831C20.3777 1.15831 13.5513 3.93794 8.36309 9.00452C3.09782 14.1481 0.149912 21.0354 0.0647594 28.397L0.00190867 33.5467C-0.0406676 37.186 0.630416 40.6712 1.87932 43.8684C3.29042 48.0815 5.67064 51.9133 8.90239 55.0903C14.0561 60.1529 20.7974 62.9325 27.9178 62.9325C28.0029 62.9325 28.0881 62.9325 28.1732 62.9325L99.004 62.2695L212.892 63.6015C213.001 63.6015 213.111 63.6015 213.218 63.6015C227.741 63.6015 239.731 52.2823 240.71 37.93C241.018 36.1925 241.176 34.4023 241.16 32.5715H241.164ZM0.989274 34.8179L0.96089 31.276C0.837215 15.9708 12.8255 3.40674 27.6887 3.26685L99.1115 2.59982L213.591 3.93794C228.452 4.1123 240.402 16.3439 240.228 31.205L240.167 36.3547C240.161 36.8555 240.14 37.3543 240.108 37.851C237.815 50.6685 226.94 60.4631 213.826 60.5867L99.006 61.6613L27.2467 60.8219C15.9518 60.6901 6.3397 53.592 2.45309 43.6677C1.51235 40.8617 1.01158 37.8814 0.987246 34.8179H0.989274ZM213.348 1.53136C213.431 1.53136 213.514 1.53136 213.599 1.53136C220.557 1.53136 227.151 4.24813 232.187 9.19915C236.57 13.5054 239.35 19.0505 240.228 25.1065C237.588 12.8039 226.701 3.48582 213.599 3.33173L128.017 2.33017L213.348 1.53136ZM8.78885 9.43839C13.9386 4.40627 20.7345 1.68139 27.9401 1.76654L70.2082 2.26124L27.6826 2.65862C14.3096 2.78432 3.21338 12.7411 0.829106 25.7877C1.49613 19.5837 4.26968 13.8542 8.79088 9.43839H8.78885ZM28.1692 62.3242C28.0861 62.3242 28.0029 62.3242 27.9198 62.3242C20.9616 62.3242 14.3684 59.6075 9.33018 54.6565C8.89833 54.2307 8.48271 53.7928 8.08127 53.3447C12.9958 58.2633 19.7573 61.343 27.2426 61.4301L70.1028 61.9309L28.1692 62.3222V62.3242ZM232.051 55.3215C226.901 60.3515 220.107 63.0764 212.9 62.9933L127.909 61.9999L213.832 61.197C225.267 61.0895 235.037 53.7948 239.121 43.5278C237.847 47.9618 235.439 52.0127 232.051 55.3235V55.3215Z" fill="white" />
</svg>