<svg viewBox="0 0 604 158" fill="none" xmlns="http://www.w3.org/2000/svg">
<path d="M47.7817 35.085H45.8928V49.7749H47.7817V35.085Z" fill="#305B1E"/>
<path d="M52.6716 43.184C52.6716 42.3715 52.9661 41.6962 53.5551 41.1478C54.1543 40.5893 54.9008 40.31 55.7792 40.31C56.5916 40.31 57.267 40.5842 57.8052 41.1275C58.3435 41.6759 58.6126 42.3512 58.6126 43.1637V49.7749H60.3746V43.184C60.3746 42.3715 60.6691 41.6962 61.2581 41.1478C61.8573 40.5893 62.6037 40.31 63.4822 40.31C64.2946 40.31 64.9649 40.5842 65.4981 41.1275C66.0312 41.6759 66.2953 42.3512 66.2953 43.1637V49.7749H68.0573V42.6813C68.0573 41.5185 67.651 40.5537 66.8386 39.787C66.0261 39.0151 65.0055 38.6343 63.7767 38.6343C62.6139 38.6343 61.6999 38.9136 61.0245 39.4721C60.5218 39.8936 60.1512 40.31 59.9125 40.7314C59.5621 40.0866 59.0645 39.5788 58.4095 39.1979C57.7545 38.8171 57.0436 38.6292 56.2565 38.6292C54.6875 38.6292 53.4942 39.2386 52.6665 40.4572V38.8628H50.9046V49.7749H52.6665V43.184H52.6716Z" fill="#305B1E"/>
<path d="M79.4111 35.2068L78.5733 33.6327L74.7548 36.1107L75.3591 37.2024L79.4111 35.2068Z" fill="#305B1E"/>
<path d="M76.136 50.0034C77.7456 50.0034 79.1014 49.4652 80.2083 48.3887C81.3 47.297 81.8434 45.9412 81.8434 44.3163C81.8434 42.6914 81.3 41.3408 80.2083 40.2643C79.1166 39.1726 77.7608 38.6292 76.136 38.6292C74.5111 38.6292 73.1553 39.1726 72.0636 40.2643C70.9719 41.356 70.4489 42.6914 70.4489 44.3163C70.4489 45.9412 70.9871 47.2817 72.0636 48.3887C73.1705 49.4652 74.5263 50.0034 76.136 50.0034ZM73.3889 41.5236C74.115 40.767 75.0341 40.3912 76.136 40.3912C77.2378 40.3912 78.1671 40.767 78.9084 41.5236C79.6498 42.2649 80.0204 43.1941 80.0204 44.3163C80.0204 45.4385 79.6498 46.3576 78.9084 47.1294C78.1671 47.8708 77.2429 48.2414 76.136 48.2414C75.029 48.2414 74.1302 47.8708 73.3889 47.1294C72.6475 46.3627 72.2769 45.4233 72.2769 44.3163C72.2769 43.2094 72.6475 42.2649 73.3889 41.5236Z" fill="#305B1E"/>
<path d="M91.877 38.8628L88.1855 47.5052L84.5143 38.8628H82.6863L87.3883 49.7749H89.003L93.705 38.8628H91.877Z" fill="#305B1E"/>
<path d="M100.337 50.0035C101.388 50.0035 102.347 49.7648 103.221 49.2875C104.094 48.8102 104.785 48.1551 105.287 47.3122L103.566 46.7689C102.794 47.82 101.718 48.343 100.332 48.343C99.2703 48.343 98.3715 48.0231 97.6454 47.3782C96.904 46.7232 96.4673 45.9006 96.3455 44.9206H105.729C105.76 44.555 105.77 44.3519 105.77 44.3113C105.77 42.6864 105.232 41.3357 104.155 40.2592C103.094 39.1675 101.753 38.6242 100.149 38.6242C98.5441 38.6242 97.2188 39.1675 96.1424 40.2592C95.0659 41.3357 94.5276 42.6864 94.5276 44.3113C94.5276 45.9362 95.0811 47.2919 96.1881 48.3836C97.3052 49.4601 98.6914 49.9984 100.342 49.9984L100.337 50.0035ZM97.6505 41.1681C98.336 40.569 99.1535 40.2643 100.103 40.2643C101.053 40.2643 101.921 40.5639 102.622 41.1681C103.338 41.7825 103.774 42.5594 103.942 43.4988H96.3658C96.5334 42.5493 96.9599 41.7724 97.6454 41.1681H97.6505Z" fill="#305B1E"/>
<path d="M109.781 38.8628H108.019V49.7749H109.781V38.8628Z" fill="#305B1E"/>
<path d="M108.898 37.4106C109.248 37.4106 109.543 37.2988 109.781 37.0754C110.02 36.8368 110.137 36.5423 110.137 36.1919C110.137 35.8415 110.02 35.5572 109.781 35.3338C109.543 35.0951 109.248 34.9783 108.898 34.9783C108.547 34.9783 108.253 35.0951 108.014 35.3338C107.791 35.5572 107.679 35.8466 107.679 36.1919C107.679 36.5372 107.791 36.8368 108.014 37.0754C108.253 37.2988 108.547 37.4106 108.898 37.4106Z" fill="#305B1E"/>
<path d="M118.017 48.0129C117.56 48.3075 117.002 48.4547 116.326 48.4547C115.651 48.4547 115.062 48.3075 114.595 48.0129C114.128 47.7184 113.833 47.3325 113.727 46.8603L112.066 47.1548C112.219 48.0383 112.67 48.734 113.422 49.2418C114.168 49.7546 115.123 50.0085 116.286 50.0085C117.449 50.0085 118.49 49.7241 119.246 49.1605C120.003 48.5918 120.379 47.8149 120.379 46.8197C120.379 45.4487 119.546 44.4534 117.88 43.839L115.214 42.8946C114.443 42.6305 114.062 42.204 114.062 41.615C114.062 41.1935 114.26 40.8533 114.661 40.5842C115.062 40.315 115.56 40.183 116.164 40.183C116.768 40.183 117.317 40.2998 117.728 40.5385C118.139 40.7771 118.403 41.1072 118.515 41.5236L120.17 41.229C120.018 40.4318 119.591 39.7971 118.901 39.33C118.21 38.8628 117.337 38.6292 116.286 38.6292C115.113 38.6292 114.163 38.9034 113.442 39.4468C112.721 39.9901 112.361 40.7568 112.361 41.7317C112.361 43.0469 113.122 43.966 114.646 44.4788L117.246 45.3827C118.21 45.7178 118.693 46.2154 118.693 46.8704C118.693 47.3325 118.464 47.7083 118.012 48.0028L118.017 48.0129Z" fill="#305B1E"/>
<path d="M82.798 91.3263C81.5997 90.1838 80.2693 89.2088 78.8272 88.4268C82.1836 85.0247 83.8847 80.8559 83.8847 76.0371C83.8847 71.2183 82.1379 66.9581 78.6901 63.5153C75.2474 60.0726 71.0328 58.3208 66.1683 58.3208H45.4764V123.793H69.9106C70.7231 123.793 71.5152 123.727 72.2718 123.59C75.9633 123.118 79.2639 121.651 82.0871 119.229C86.3271 115.593 88.546 110.937 88.6781 105.382C88.8101 99.8264 86.8348 95.099 82.7929 91.3263H82.798ZM53.1743 117.441V93.0781H69.9157L70.1138 93.0578C70.3067 93.0222 70.4895 93.0222 70.6825 93.0578L70.7383 93.0679C73.7139 93.4843 76.1309 94.8045 78.1265 97.0946C80.122 99.3898 81.0919 101.949 81.0919 104.925C81.0919 108.215 80.0306 110.987 77.8523 113.409C75.6841 115.816 73.0741 117.137 69.8751 117.441H53.1743ZM74.3892 82.1507C73.196 83.9838 71.5558 85.3599 69.5197 86.2333C68.4381 86.6903 67.3108 86.9188 66.1734 86.9188H53.1794V64.475H66.1125C69.0525 64.8406 71.434 66.0948 73.3788 68.3037C75.3337 70.5277 76.2579 73.0463 76.1969 76.032C76.1969 78.251 75.5876 80.3075 74.3943 82.1457L74.3892 82.1507Z" fill="#305B1E"/>
<path d="M143.147 90.2904C142.858 89.3561 142.497 88.4472 142.071 87.589C141.863 87.1066 141.624 86.5938 141.335 86.0098C138.207 79.8962 133.271 75.6613 126.665 73.422C120.059 71.1828 113.534 71.5636 107.283 74.5493C101.032 77.535 96.6197 82.3386 94.1671 88.8432C91.7146 95.3478 91.8771 101.852 94.6546 108.184C95.2893 109.591 96.0002 110.947 96.7923 112.242C99.3515 116.08 102.754 119.051 106.912 121.077C110.558 122.854 114.417 123.748 118.408 123.748C118.962 123.748 119.515 123.733 120.074 123.697C124.659 123.413 128.93 121.955 132.768 119.361C136.597 116.771 139.588 113.369 141.644 109.251L142.279 107.976L133.977 106.869L133.652 107.519C132.682 109.459 131.402 111.18 129.854 112.633C128.3 114.09 126.513 115.253 124.542 116.091C122.582 116.928 120.516 117.416 118.398 117.553C115.382 117.416 112.549 116.568 109.979 115.024C107.715 113.663 105.846 111.861 104.424 109.647L143.401 91.1282L143.142 90.2904H143.147ZM133.738 88.5589L101.591 103.807C100.936 101.913 100.606 99.928 100.606 97.8918C100.606 92.8902 102.403 88.3456 105.953 84.3748C109.522 80.3786 113.6 78.4389 118.373 78.4389C121.79 78.5709 124.964 79.6474 127.807 81.648C130.387 83.4659 132.377 85.7864 133.738 88.5589Z" fill="#305B1E"/>
<path d="M156.867 53.6746H148.768V123.499H156.867V53.6746Z" fill="#305B1E"/>
<path d="M173.741 53.6746H165.642V123.499H173.741V53.6746Z" fill="#305B1E"/>
<path d="M223.762 72.2948V79.1701C220.598 76.098 216.795 73.9705 212.428 72.8432C207.203 71.4925 201.999 71.7667 196.956 73.6455C191.914 75.5293 187.791 78.7131 184.704 83.1155C181.611 87.523 180.047 92.4941 180.047 97.8969C180.047 103.3 181.616 108.271 184.704 112.678C187.796 117.086 191.919 120.27 196.956 122.148C199.896 123.245 202.892 123.793 205.919 123.793C208.082 123.793 210.255 123.514 212.433 122.951C216.8 121.823 220.598 119.726 223.767 116.695V123.499H231.866V72.2948H223.762ZM223.762 97.9477C223.762 102.98 221.959 107.565 218.41 111.571C214.84 115.598 210.763 117.558 205.949 117.558C201.135 117.558 197.058 115.603 193.488 111.571C189.939 107.565 188.136 102.98 188.136 97.9477C188.136 92.9156 189.934 88.3456 193.483 84.3748C197.053 80.3786 201.13 78.4389 205.944 78.4389C210.758 78.4389 214.835 80.3786 218.405 84.3748C221.954 88.3456 223.752 92.9156 223.752 97.9477H223.762Z" fill="#305B1E"/>
<path d="M443.248 61.7026C441.354 60.5042 433.667 60.3621 431.62 70.6039C433.392 67.0444 437.881 68.6693 438.826 69.0349C441.557 70.0961 443.599 69.304 444.528 67.6283C445.427 66.0035 445.655 63.2259 443.248 61.7077V61.7026Z" fill="#305B1E"/>
<path d="M523.604 64.4649H504.897V53.3903L496.24 55.2944V64.4649H482.855V71.2691H496.24V123.773H504.897V71.2691H523.604V64.4649Z" fill="#305B1E"/>
<path d="M443.385 72.1171H434.728V123.773H443.385V72.1171Z" fill="#305B1E"/>
<path d="M486.221 101.121C485.231 99.8265 483.789 98.623 481.936 97.5465C480.133 96.5005 477.919 95.6119 475.309 94.8858C474.111 94.6065 472.151 94.2206 469.505 93.7433C467.804 93.4031 466.682 93.2 466.078 93.1187C458.101 91.3821 458.101 88.1527 458.101 87.0914C458.101 85.9489 458.583 84.7455 459.528 83.5065C460.538 82.1914 461.97 81.0489 463.778 80.1146C465.57 79.1853 467.449 78.7182 469.353 78.7182C471.516 78.7182 473.573 79.2513 475.462 80.3024C477.356 81.3586 478.909 82.8362 480.093 84.6998L480.692 85.6442L486.937 82.8515L486.206 81.6074C484.454 78.6115 482.042 76.2199 479.047 74.5036C476.046 72.7873 472.786 71.914 469.353 71.914C463.945 71.914 459.304 73.351 455.562 76.1894C451.708 79.1092 449.753 82.7804 449.753 87.0965C449.753 90.6712 451.099 93.7839 453.744 96.3583C456.313 98.8515 459.883 100.593 464.367 101.533C464.951 101.649 465.915 101.842 467.256 102.111L468.013 102.259C470.424 102.66 472.151 103 473.151 103.264C478.102 104.534 480.616 106.362 480.616 108.697C480.616 111.216 479.57 113.156 477.422 114.623C475.147 116.177 472.369 116.969 469.094 116.969C466.337 117.091 463.732 116.476 461.356 115.131C458.979 113.79 457.105 111.866 455.79 109.418L455.338 108.575L449.006 109.84L449.27 111.114C450.027 114.755 452.409 117.822 456.339 120.234C460.162 122.58 464.544 123.768 469.358 123.768C474.695 123.768 479.305 122.331 483.048 119.493C486.902 116.573 488.857 112.937 488.857 108.687C488.857 107.397 488.664 106.128 488.283 104.904C487.897 103.67 487.201 102.391 486.226 101.111L486.221 101.121Z" fill="#305B1E"/>
<path d="M556.726 78.5201C553.624 75.6512 549.942 73.6556 545.743 72.569C540.467 71.2082 535.202 71.4773 530.103 73.3814C525.01 75.2805 520.842 78.5049 517.719 82.953C514.596 87.4062 513.012 92.4332 513.012 97.8918C513.012 103.35 514.596 108.377 517.719 112.831C520.842 117.284 525.01 120.503 530.103 122.402C533.079 123.509 536.105 124.068 539.162 124.068C541.346 124.068 543.544 123.783 545.743 123.215C549.942 122.128 553.624 120.153 556.726 117.329V123.768H565.384V72.0104H556.726V78.5201ZM551.445 111.389C547.931 115.354 543.925 117.279 539.193 117.279C534.46 117.279 530.454 115.354 526.94 111.389C523.436 107.433 521.659 102.914 521.659 97.9477C521.659 92.9816 523.436 88.4827 526.935 84.5627C530.449 80.6325 534.455 78.7182 539.188 78.7182C543.92 78.7182 547.926 80.6274 551.44 84.5627C554.944 88.4827 556.716 92.9867 556.716 97.9477C556.716 102.909 554.939 107.433 551.435 111.389H551.445Z" fill="#305B1E"/>
<path d="M423.608 54.3195L402.779 111.434L402.469 112.501L402.195 111.521L381.381 54.3195H372.576L398.919 125.088H406.023L432.367 54.3195H423.608Z" fill="#305B1E"/>
<path fill-rule="evenodd" clip-rule="evenodd" d="M359.308 99.3492C353.209 101.365 344.77 104.442 335.828 108.575C337.255 109.286 338.677 110.033 340.088 110.82C345.557 107.788 351.544 104.94 357.977 102.553C358.455 101.502 358.891 100.431 359.308 99.3492Z" fill="#F6B72A"/>
<path fill-rule="evenodd" clip-rule="evenodd" d="M356.642 105.316C352.91 107.408 348.523 110.002 343.856 113.044C345.608 114.131 347.339 115.283 349.046 116.507C351.996 113.105 354.55 109.347 356.642 105.316Z" fill="#F6B72A"/>
<path fill-rule="evenodd" clip-rule="evenodd" d="M320.255 134.437C300.756 111.795 259.763 99.2679 251.238 96.8509C251.563 97.8461 251.918 98.8312 252.294 99.8011C282.567 108.545 304.625 128.694 311.851 135.97C314.72 135.665 317.528 135.147 320.25 134.437H320.255Z" fill="#F6B72A"/>
<path fill-rule="evenodd" clip-rule="evenodd" d="M360.653 95.3784C355.829 96.4091 341.647 99.6437 327.526 104.879C328.76 105.371 329.999 105.884 331.238 106.428C339.367 103.193 348.837 100.268 359.775 98.0645C360.09 97.1759 360.379 96.2822 360.648 95.3784H360.653Z" fill="#F6B72A"/>
<path fill-rule="evenodd" clip-rule="evenodd" d="M279.277 129.846C272.6 122.483 261.794 112.638 255.935 107.413C261.393 116.944 269.513 124.758 279.277 129.846Z" fill="#F6B72A"/>
<path fill-rule="evenodd" clip-rule="evenodd" d="M303.097 136.234C285.604 117.492 260.286 104.173 252.502 100.334C253.132 101.908 253.832 103.447 254.594 104.945C267.09 110.794 284.512 127.079 292.312 134.721C295.795 135.554 299.395 136.072 303.092 136.239L303.097 136.234Z" fill="#F6B72A"/>
<path fill-rule="evenodd" clip-rule="evenodd" d="M321.793 102.772C333.457 98.7398 346.69 95.6627 360.745 95.0788C362.238 89.9655 363.045 84.5627 363.045 78.967C363.045 47.3122 337.372 21.639 305.717 21.639C297.821 21.639 290.296 23.2385 283.451 26.1278C269.716 31.9672 258.707 42.9758 252.873 56.7162C249.989 63.5611 248.389 71.0812 248.389 78.9721C248.389 85.1416 249.369 91.0876 251.177 96.658C298.557 104.264 320.96 125.434 327.054 132.197C329.237 131.319 331.355 130.313 333.391 129.186C323.159 120.589 302.919 109.85 302.919 109.85C282.705 100.167 256.077 94.962 256.077 94.962C296.105 96.0689 329.775 117.644 340.017 124.911C341.602 123.728 343.115 122.463 344.567 121.128C336.915 115.613 315.395 102.025 281.618 95.6932C281.618 95.6932 293.627 95.5865 309.363 99.2476C324.972 95.6526 336.854 95.7541 336.854 95.7541C329.258 97.1759 322.286 98.9683 315.949 100.954C317.868 101.502 319.823 102.111 321.798 102.782L321.793 102.772ZM337.941 77.6163H335.97V75.6461H337.941V77.6163ZM282.029 83.0191H278.886V79.8759H282.029V83.0191ZM282.029 78.5049H278.886V75.3618H282.029V78.5049ZM286.543 83.0191H283.4V79.8759H286.543V83.0191ZM286.543 78.5049H283.4V75.3618H286.543V78.5049ZM335.112 80.4446H333.142V78.4745H335.112V80.4446ZM335.112 77.6163H333.142V75.6461H335.112V77.6163ZM318.681 85.4767H304.397L283.258 58.0872L265.395 79.815L282.004 54.2027L314.598 68.1717L308.256 77.8753L316.005 68.258L335.539 62.6978L346.029 76.1895L335.539 65.8562L318.681 85.4767ZM335.97 80.4446V78.4745H337.941V80.4446H335.97Z" fill="#F6B72A"/>
<path d="M604 79.7082L603.929 70.8373C603.772 51.4758 596.19 33.4447 582.582 20.0749C569.522 7.24848 552.364 0.271632 534.318 0.439198L248.231 3.11518L69.9916 1.0333C69.7174 1.0333 69.4382 1.0333 69.164 1.0333C51.0363 1.0333 33.9395 7.99491 20.9455 20.6843C7.75853 33.5665 0.375457 50.8157 0.162191 69.2531L0.00478029 82.1506C-0.101853 91.2652 1.57889 99.9939 4.70679 108.002C8.24092 118.553 14.2022 128.15 22.2962 136.107C35.2039 148.786 52.0874 155.748 69.9205 155.748C70.1338 155.748 70.3471 155.748 70.5603 155.748L247.957 154.087L533.191 157.423C533.465 157.423 533.739 157.423 534.008 157.423C570.38 157.423 600.41 129.074 602.863 93.1287C603.634 88.7771 604.03 84.2934 603.99 79.7082H604ZM2.47765 85.3344L2.40656 76.4635C2.09682 38.1315 32.1217 6.66454 69.3468 6.31417L248.226 4.64359L534.942 7.99491C572.162 8.4316 602.091 39.0658 601.654 76.2858L601.502 89.1833C601.486 90.4375 601.436 91.6867 601.354 92.9307C595.612 125.032 568.374 149.563 535.531 149.873L247.962 152.564L68.2398 150.462C39.9516 150.132 15.8779 132.354 6.1438 107.499C3.78772 100.471 2.53351 93.0069 2.47257 85.3344H2.47765ZM534.333 1.96761C534.541 1.96761 534.749 1.96761 534.963 1.96761C552.39 1.96761 568.902 8.77181 581.516 21.1717C592.494 31.9569 599.455 45.8446 601.654 61.0119C595.043 30.2 567.775 6.86257 534.963 6.47666L320.62 3.96825L534.333 1.96761ZM22.0118 21.7709C34.9093 9.16788 51.93 2.34336 69.9764 2.55663L175.838 3.7956L69.3315 4.79084C35.8386 5.10566 8.04796 30.0426 2.07651 62.718C3.74709 47.18 10.6935 32.8303 22.0169 21.7709H22.0118ZM70.5502 154.224C70.342 154.224 70.1338 154.224 69.9256 154.224C52.4987 154.224 35.9858 147.42 23.3676 135.02C22.286 133.954 21.2451 132.857 20.2397 131.735C32.5482 144.054 49.4825 151.767 68.2296 151.985L175.574 153.239L70.5502 154.219V154.224ZM581.175 136.686C568.278 149.284 551.262 156.108 533.211 155.9L320.351 153.412L535.547 151.401C564.185 151.132 588.655 132.862 598.882 107.148C595.693 118.254 589.66 128.399 581.175 136.691V136.686Z" fill="#F6B72A"/>
</svg>
