<svg viewBox="0 0 67 66" fill="none" xmlns="http://www.w3.org/2000/svg">
  <path d="M66.0734 10.1261C66.0194 9.9395 65.9161 9.77089 65.7745 9.63795C65.6328 9.50501 65.458 9.41263 65.2683 9.37052L58.626 7.86988L57.1254 1.22756C57.0827 1.0384 56.9901 0.864158 56.8571 0.723019C56.7242 0.581879 56.5558 0.479017 56.3695 0.425171C56.1832 0.371325 55.9859 0.368469 55.7981 0.416901C55.6104 0.465332 55.439 0.563276 55.3021 0.700508L47.6626 8.34119C41.198 4.44028 33.5291 3.04047 26.1033 4.40593C18.6774 5.77139 12.0081 9.80768 7.35402 15.7531C2.69995 21.6985 0.38298 29.1418 0.840372 36.6783C1.29776 44.2148 4.49788 51.3233 9.8368 56.6622C15.1757 62.0011 22.2842 65.2012 29.8207 65.6586C37.3572 66.116 44.8005 63.799 50.7459 59.145C56.6913 54.4909 60.7276 47.8216 62.093 40.3957C63.4585 32.9698 62.0587 25.301 58.1578 18.8364L65.8003 11.1938C65.9371 11.0565 66.0346 10.885 66.0826 10.6972C66.1307 10.5095 66.1275 10.3122 66.0734 10.1261ZM60.4338 34.8095C60.433 41.137 58.344 47.2874 54.491 52.3065C50.6381 57.3256 45.2364 60.933 39.1241 62.569C33.0117 64.2049 26.5304 63.7781 20.6854 61.3546C14.8404 58.9312 9.9585 54.6466 6.79704 49.1655C3.63558 43.6844 2.37127 37.3132 3.20023 31.0403C4.02919 24.7673 6.90508 18.9432 11.3818 14.4715C15.8585 9.99981 21.6858 7.1304 27.9596 6.30843C34.2335 5.48646 40.6033 6.75788 46.0808 9.92544L42.5723 13.4339C42.5422 13.4683 42.5143 13.5045 42.4887 13.5423C37.4227 10.9632 31.6029 10.2756 26.0753 11.6031C20.5478 12.9306 15.6749 16.1862 12.3327 20.7846C8.9905 25.3831 7.39808 31.0229 7.84167 36.6903C8.28527 42.3577 10.7358 47.6811 14.7528 51.7035C18.7698 55.726 24.0898 58.1838 29.7566 58.6351C35.4234 59.0864 41.0654 57.5016 45.6684 54.1657C50.2714 50.8297 53.5336 45.9613 54.8686 40.4356C56.2036 34.9098 55.5239 29.0891 52.9517 24.0195C52.9915 23.9914 53.0294 23.9606 53.065 23.9273L56.5735 20.4188C59.1072 24.7912 60.439 29.7561 60.4338 34.8095ZM50.3796 23.8387C53.0413 28.3825 53.956 33.7405 52.9524 38.91C51.9489 44.0795 49.0959 48.7062 44.9275 51.9241C40.759 55.142 35.5608 56.7306 30.3057 56.3925C25.0505 56.0545 20.0986 53.813 16.3768 50.0876C12.655 46.3622 10.4183 41.4082 10.0853 36.1527C9.75233 30.8972 11.3459 25.7005 14.5678 21.5352C17.7897 17.3698 22.4191 14.5213 27.5896 13.5227C32.76 12.5242 38.1172 13.444 42.6584 16.1101L43.7998 21.1663L42.7049 22.2613C39.4395 19.3939 35.187 17.9087 30.8465 18.1198C26.506 18.3309 22.4177 20.2217 19.446 23.3925C16.4743 26.5632 14.8522 30.7654 14.9226 35.1104C14.993 39.4555 16.7504 43.6029 19.8232 46.6757C22.8961 49.7486 27.0435 51.506 31.3885 51.5764C35.7336 51.6468 39.9357 50.0246 43.1065 47.0529C46.2773 44.0813 48.1681 39.993 48.3792 35.6525C48.5903 31.312 47.1051 27.0595 44.2377 23.7941L45.3327 22.6991L50.3796 23.8387ZM36.3499 34.8095C36.3538 35.8456 36.0135 36.8536 35.3826 37.6755C34.7516 38.4973 33.8657 39.0864 32.8638 39.3503C31.8619 39.6142 30.8007 39.5381 29.8467 39.1338C28.8928 38.7295 28.1001 38.0199 27.593 37.1164C27.0858 36.2129 26.893 35.1666 27.0448 34.1417C27.1965 33.1168 27.6843 32.1712 28.4314 31.4534C29.1786 30.7357 30.1429 30.2862 31.1731 30.1757C32.2033 30.0652 33.241 30.2998 34.1234 30.8427L30.9227 34.0434C30.8192 34.1434 30.7367 34.263 30.6799 34.3953C30.6231 34.5275 30.5933 34.6697 30.592 34.8136C30.5908 34.9576 30.6183 35.1003 30.6728 35.2335C30.7273 35.3666 30.8078 35.4876 30.9096 35.5894C31.0114 35.6911 31.1324 35.7716 31.2656 35.826C31.3988 35.8805 31.5416 35.9079 31.6855 35.9066C31.8294 35.9053 31.9716 35.8754 32.1038 35.8186C32.236 35.7618 32.3556 35.6792 32.4556 35.5756L35.6563 32.3749C36.1094 33.1062 36.3496 33.9493 36.3499 34.8095ZM35.6835 29.2826C34.2871 28.2712 32.5609 27.823 30.8488 28.0274C29.1368 28.2318 27.5646 29.0739 26.4456 30.3857C25.3266 31.6975 24.743 33.3828 24.811 35.1057C24.8791 36.8285 25.5938 38.4625 26.8128 39.682C28.0318 40.9014 29.6655 41.6168 31.3883 41.6856C33.1112 41.7543 34.7967 41.1714 36.109 40.0529C37.4212 38.9345 38.2639 37.3627 38.469 35.6507C38.6741 33.9387 38.2266 32.2123 37.2157 30.8155L42.7018 25.3294C45.1599 28.1852 46.4153 31.8826 46.2041 35.6446C45.9929 39.4067 44.3317 42.9404 41.5694 45.5031C38.8072 48.0659 35.1591 49.458 31.3918 49.3871C27.6245 49.3162 24.0314 47.7877 21.3676 45.1228C18.7038 42.4579 17.1767 38.8642 17.1073 35.0968C17.0379 31.3295 18.4316 27.682 20.9954 24.9208C23.5593 22.1596 27.0936 20.4997 30.8558 20.2901C34.6179 20.0805 38.3148 21.3373 41.1695 23.7966L35.6835 29.2826ZM56.0248 17.9018L51.9571 21.9689L51.347 21.8315L51.3235 21.8259L45.895 20.6039L44.5269 14.545L55.447 3.62313L56.6652 9.01502C56.7104 9.21491 56.8112 9.39791 56.9562 9.54282C57.1011 9.68773 57.2841 9.78861 57.484 9.83378L62.8758 11.052L56.0248 17.9018Z" fill="#F6B72A" />
</svg>