<svg id="Layer_3" enable-background="new 0 0 64 64"  viewBox="0 0 64 64" xmlns="http://www.w3.org/2000/svg"><g><path d="m38 27h1v11c0 2.757 2.243 5 5 5h10c2.757 0 5-2.243 5-5v-11h1c1.654 0 3-1.346 3-3s-1.346-3-3-3h-1v-4.171c0-2.091-.814-4.057-2.293-5.536s-3.444-2.293-5.536-2.293h-4.343c-2.091 0-4.057.814-5.536 2.293s-2.292 3.444-2.292 5.536v4.171h-1c-1.654 0-3 1.346-3 3s1.346 3 3 3zm3.065-11h1.935c2.206 0 4-1.794 4-4v-1h4v1c0 2.206 1.794 4 4 4h1.935c.039.273.065.548.065.829v6.06c-1.833-1.229-3.987-1.889-6.243-1.889h-3.515c-2.256 0-4.41.66-6.243 1.889v-6.06c.001-.281.027-.556.066-.829zm-.065 9.441c1.709-1.571 3.907-2.441 6.243-2.441h3.515c2.336 0 4.534.87 6.243 2.441v8.117c-1.71 1.572-3.908 2.442-6.244 2.442h-3.515c-2.336 0-4.534-.87-6.243-2.441v-8.118zm13 15.559h-10c-1.654 0-3-1.346-3-3v-1.889c1.833 1.228 3.987 1.889 6.243 1.889h3.515c2.256 0 4.41-.661 6.243-1.889v1.889c-.001 1.654-1.347 3-3.001 3zm6-18c.551 0 1 .449 1 1s-.449 1-1 1h-1v-2zm-3.734-9h-1.266c-1.103 0-2-.897-2-2v-.703c.854.281 1.638.756 2.293 1.41.389.389.712.825.973 1.293zm-11.266-2.703v.703c0 1.103-.897 2-2 2h-1.266c.261-.468.584-.904.973-1.293.655-.654 1.439-1.129 2.293-1.41zm-7 11.703h1v2h-1c-.551 0-1-.449-1-1s.449-1 1-1z"/><path d="m4 27h1v11c0 2.757 2.243 5 5 5h10c2.757 0 5-2.243 5-5v-11h1c1.654 0 3-1.346 3-3s-1.346-3-3-3h-1v-4.171c0-2.091-.814-4.057-2.293-5.536s-3.444-2.293-5.536-2.293h-4.343c-2.091 0-4.057.814-5.536 2.293s-2.292 3.444-2.292 5.536v4.171h-1c-1.654 0-3 1.346-3 3s1.346 3 3 3zm3.065-11h1.935c2.206 0 4-1.794 4-4v-1h4v1c0 2.206 1.794 4 4 4h1.935c.039.273.065.548.065.829v6.06c-1.833-1.229-3.987-1.889-6.243-1.889h-3.515c-2.256 0-4.41.66-6.243 1.889v-6.06c.001-.281.027-.556.066-.829zm-.065 9.441c1.709-1.571 3.907-2.441 6.243-2.441h3.515c2.336 0 4.534.87 6.243 2.441v8.117c-1.71 1.572-3.908 2.442-6.244 2.442h-3.515c-2.335 0-4.533-.87-6.242-2.441zm13 15.559h-10c-1.654 0-3-1.346-3-3v-1.889c1.833 1.228 3.987 1.889 6.243 1.889h3.515c2.256 0 4.41-.661 6.243-1.889v1.889c-.001 1.654-1.347 3-3.001 3zm6-18c.551 0 1 .449 1 1s-.449 1-1 1h-1v-2zm-3.734-9h-1.266c-1.103 0-2-.897-2-2v-.703c.854.281 1.638.756 2.293 1.41.389.389.712.825.973 1.293zm-11.266-2.703v.703c0 1.103-.897 2-2 2h-1.266c.261-.468.584-.904.973-1.293.655-.654 1.439-1.129 2.293-1.41zm-7 11.703h1v2h-1c-.551 0-1-.449-1-1s.449-1 1-1z"/><path d="m4 7h22c.552 0 1-.448 1-1v-4c0-.552-.448-1-1-1h-22c-.552 0-1 .448-1 1v4c0 .552.448 1 1 1zm1-4h20v2h-20z"/><path d="m38 7h22c.552 0 1-.448 1-1v-4c0-.552-.448-1-1-1h-22c-.552 0-1 .448-1 1v4c0 .552.448 1 1 1zm1-4h20v2h-20z"/><path d="m1 61h62v2h-62z"/><path d="m6 53h4v2h-4z"/><path d="m14 53h4v2h-4z"/><path d="m22 53h4v2h-4z"/><path d="m30 53h4v2h-4z"/><path d="m38 53h4v2h-4z"/><path d="m46 53h4v2h-4z"/><path d="m54 53h4v2h-4z"/><path d="m33 1h-2v44h-30v2h62v-2h-30z"/></g></svg>