<svg viewBox="0 0 24 24" fill="none" xmlns="http://www.w3.org/2000/svg">
  <path d="M22.8014 17.2509C22.7597 17.2163 18.0565 13.8505 16.7804 14.0712C16.1671 14.1795 15.8161 14.5973 15.1132 15.4352C15.0001 15.5703 14.7276 15.8931 14.5172 16.1232C14.0729 15.9784 13.6397 15.8021 13.2206 15.5954C11.0575 14.5424 9.3098 12.7946 8.25671 10.6315C8.05007 10.2125 7.87371 9.77921 7.72898 9.33498C7.95986 9.12373 8.28341 8.85123 8.42162 8.73501C9.25483 8.03609 9.67261 7.68505 9.78099 7.07094C10.0032 5.79953 6.63584 1.09241 6.60128 1.05C6.44793 0.832518 6.2482 0.651794 6.01652 0.520878C5.78484 0.389961 5.52697 0.312119 5.26155 0.292969C3.89669 0.292969 0 5.3472 0 6.19925C0 6.24873 0.0714631 11.2778 6.27302 17.5862C12.5743 23.7807 17.6034 23.8521 17.6529 23.8521C18.505 23.8521 23.5592 19.9555 23.5592 18.5906C23.54 18.3251 23.4621 18.0671 23.3311 17.8354C23.2 17.6037 23.0191 17.4041 22.8014 17.2509ZM17.5665 22.2768C16.8802 22.2203 12.6599 21.6635 7.38345 16.4797C2.17294 11.175 1.6303 6.94294 1.57611 6.28721C2.60547 4.67155 3.84862 3.20254 5.27176 1.92012C5.30317 1.95153 5.34479 1.99865 5.39819 2.05991C6.48963 3.54981 7.42984 5.1448 8.20488 6.82122C7.95284 7.07477 7.68644 7.31364 7.40701 7.53663C6.97367 7.86681 6.57575 8.24105 6.21962 8.65334L6.02879 8.92034L6.08534 9.2431C6.25153 9.96301 6.50607 10.6596 6.84316 11.3171C8.05087 13.7971 10.0549 15.8008 12.5351 17.0082C13.1924 17.3458 13.889 17.6006 14.609 17.7668L14.9318 17.8234L15.1988 17.6325C15.6127 17.2748 15.9885 16.8753 16.3202 16.4404C16.566 16.1467 16.8951 15.7549 17.0192 15.6441C18.7003 16.4184 20.2994 17.3597 21.7922 18.454C21.8574 18.5089 21.903 18.5513 21.9336 18.5788C20.6514 20.0024 19.1823 21.2458 17.5665 22.2753V22.2768Z" fill="#F6B72A" />
</svg>