<svg id="Layer_1" viewBox="0 0 512 512" xmlns="http://www.w3.org/2000/svg"><g><path d="m59.4 141.3h65.5v16.4h-65.5z"/><path d="m174.1 141.3h65.5v16.4h-65.5z"/><path d="m59.4 190.5h65.5v16.4h-65.5z"/><path d="m174.1 190.5h65.5v16.4h-65.5z"/><path d="m59.4 239.6h65.5v16.4h-65.5z"/><path d="m174.1 239.6h65.5v16.4h-65.5z"/><path d="m59.4 288.8h65.5v16.4h-65.5z"/><path d="m174.1 288.8h65.5v16.4h-65.5z"/><path d="m59.4 337.9h65.5v16.4h-65.5z"/><path d="m174.1 337.9h65.5v16.4h-65.5z"/><path d="m493.6 493.6v-327.7h-196.6v327.7h-16.4v-393.3h-32.8v-49.1h-49.2v-49.2h-98.3v49.2h-49.1v49.2h-32.8v393.3h-16.4v16.3h508v-16.4zm-376.9-475.2h65.5v32.8h-65.5zm-49.2 49.1h163.9v32.8h-163.9zm114.8 426.1h-65.5v-65.5c0-18.1 14.7-32.8 32.8-32.8s32.8 14.7 32.8 32.8v65.5zm81.9 0h-65.5v-65.5c0-27.1-22.1-49.2-49.2-49.2s-49.2 22.1-49.2 49.2v65.5h-65.5v-376.9h229.4zm213 0h-163.8v-311.3h163.9v311.3z"/><path d="m337.9 206.8h16.4v16.4h-16.4z"/><path d="m370.7 206.8h16.4v16.4h-16.4z"/><path d="m403.5 206.8h16.4v16.4h-16.4z"/><path d="m436.3 206.8h16.4v16.4h-16.4z"/><path d="m337.9 247.8h16.4v16.4h-16.4z"/><path d="m370.7 247.8h16.4v16.4h-16.4z"/><path d="m403.5 247.8h16.4v16.4h-16.4z"/><path d="m436.3 247.8h16.4v16.4h-16.4z"/><path d="m337.9 288.8h16.4v16.4h-16.4z"/><path d="m370.7 288.8h16.4v16.4h-16.4z"/><path d="m403.5 288.8h16.4v16.4h-16.4z"/><path d="m436.3 288.8h16.4v16.4h-16.4z"/><path d="m337.9 329.7h16.4v16.4h-16.4z"/><path d="m370.7 329.7h16.4v16.4h-16.4z"/><path d="m403.5 329.7h16.4v16.4h-16.4z"/><path d="m436.3 329.7h16.4v16.4h-16.4z"/><path d="m337.9 370.7h16.4v16.4h-16.4z"/><path d="m370.7 370.7h16.4v16.4h-16.4z"/><path d="m403.5 370.7h16.4v16.4h-16.4z"/><path d="m436.3 370.7h16.4v16.4h-16.4z"/><path d="m337.9 411.7h16.4v16.4h-16.4z"/><path d="m370.7 411.7h16.4v16.4h-16.4z"/><path d="m403.5 411.7h16.4v16.4h-16.4z"/><path d="m436.3 411.7h16.4v16.4h-16.4z"/><path d="m337.9 452.6h16.4v16.4h-16.4z"/><path d="m370.7 452.6h16.4v16.4h-16.4z"/><path d="m403.5 452.6h16.4v16.4h-16.4z"/><path d="m436.3 452.6h16.4v16.4h-16.4z"/></g></svg>