<?xml version="1.0" encoding="iso-8859-1"?>
<svg version="1.1" id="Capa_1" xmlns="http://www.w3.org/2000/svg" xmlns:xlink="http://www.w3.org/1999/xlink" x="0px" y="0px"
	 viewBox="0 0 496 496" style="enable-background:new 0 0 496 496;" xml:space="preserve">
<g>
	<g>
		<path d="M496,16V0H0v16h104v157.28c-10.864,1.384-21.608,2.216-32,2.52v-9.272c9.288-3.312,16-12.112,16-22.528
			c0-13.232-10.768-24-24-24s-24,10.768-24,24c0,10.416,6.712,19.216,16,22.528v146.136C36.904,323.744,24,344.376,24,368
			c0,8.824,7.176,16,16,16h8v16h-8v64h17.752l7.992,32h60.496l7.992-32h227.512l7.992,32h60.496l7.992-32H456v-64h-8v-16h8
			c8.824,0,16-7.176,16-16c0-23.624-12.904-44.256-32-55.344V166.528c9.288-3.312,16-12.112,16-22.528c0-13.232-10.768-24-24-24
			s-24,10.768-24,24c0,10.416,6.712,19.216,16,22.528v9.272c-10.392-0.304-21.136-1.136-32-2.52V16H496z M250.584,80l9.6,24h-24.376
			l9.608-24H250.584z M120,16h120v16h-72v33.472c-9.288,3.312-16,12.112-16,22.528c0,13.232,10.768,24,24,24s24-10.768,24-24
			c0-10.416-6.712-19.216-16-22.528V48h56v16h-5.416l-22.4,56h71.624l-22.4-56H256V48h56v17.472c-9.288,3.312-16,12.112-16,22.528
			c0,13.232,10.768,24,24,24s24-10.768,24-24c0-10.416-6.712-19.216-16-22.528V32h-72V16h120v154.904
			c-20.232-3.48-40.056-8.6-57.136-15c-2.904-1.088-6.168-2.4-9.688-3.824C292.328,145.296,269.248,136,248,136
			s-44.328,9.296-61.176,16.08c-3.52,1.416-6.784,2.728-9.688,3.824c-17.08,6.4-36.904,11.52-57.136,15V16z M184,88
			c0,4.408-3.584,8-8,8s-8-3.592-8-8s3.584-8,8-8S184,83.592,184,88z M320,80c4.416,0,8,3.592,8,8s-3.584,8-8,8
			c-4.416,0-8-3.592-8-8S315.584,80,320,80z M64,136c4.416,0,8,3.592,8,8s-3.584,8-8,8s-8-3.592-8-8S59.584,136,64,136z
			 M113.752,480H78.248l-4.008-16h43.512L113.752,480z M417.752,480h-35.504l-4.008-16h43.512L417.752,480z M440,448H56v-32h344v-16
			H64v-24c0-13.232,10.768-24,24-24h320c13.232,0,24,10.768,24,24v24h-16v16h24V448z M432,136c4.416,0,8,3.592,8,8s-3.584,8-8,8
			c-4.416,0-8-3.592-8-8S427.584,136,432,136z M456,368h-8.808c-3.72-18.232-19.872-32-39.192-32H88
			c-19.312,0-35.472,13.768-39.192,32H40c0-26.472,21.528-48,48-48h320C434.472,320,456,341.528,456,368z M112,304v-56
			c0-3.496,4.048-6,7.16-4.424l16.84,8.416l3.568-1.776c0.144-0.072,14.584-7.16,28.432-7.16s28.288,7.088,28.432,7.16l3.584,1.776
			l16.832-8.416C219.96,242.008,224,244.512,224,248v56H112z M272,304v-56c0-3.496,4.048-6,7.16-4.424l16.84,8.416l3.568-1.776
			c0.144-0.072,14.584-7.16,28.432-7.16s28.288,7.088,28.432,7.16l3.584,1.776l16.832-8.416C379.96,242.008,384,244.512,384,248v56
			H272z M424,191.8v114.312c-5.128-1.336-10.464-2.112-16-2.112h-8v-56c0-11.552-9.4-20.944-20.944-20.944
			c-3.232,0-6.48,0.768-9.368,2.208l-9.872,4.936c-6.12-2.576-18.832-7.152-31.816-7.152s-25.696,4.576-31.816,7.152l-9.872-4.936
			c-2.888-1.448-6.136-2.208-9.368-2.208C265.4,227.056,256,236.448,256,248v56h-16v-56c0-11.552-9.4-20.944-20.944-20.944
			c-3.232,0-6.48,0.768-9.368,2.208l-9.872,4.936c-6.12-2.576-18.832-7.152-31.816-7.152c-12.984,0-25.696,4.576-31.816,7.152
			l-9.872-4.936c-2.888-1.448-6.136-2.208-9.368-2.208C105.4,227.056,96,236.448,96,248v56h-8c-5.536,0-10.872,0.776-16,2.104V191.8
			c36.696-1.008,78.36-8.768,110.744-20.912c3.024-1.136,6.4-2.496,10.056-3.968C208.432,160.624,229.848,152,248,152
			s39.568,8.624,55.2,14.92c3.656,1.472,7.032,2.832,10.056,3.968C345.64,183.024,387.304,190.792,424,191.8z"/>
	</g>
</g>
<g>
</g>
<g>
</g>
<g>
</g>
<g>
</g>
<g>
</g>
<g>
</g>
<g>
</g>
<g>
</g>
<g>
</g>
<g>
</g>
<g>
</g>
<g>
</g>
<g>
</g>
<g>
</g>
<g>
</g>
</svg>
