<svg viewBox="0 0 73 72" fill="none" xmlns="http://www.w3.org/2000/svg">
  <path d="M64.307 42.6515L63.9397 42.8497C62.4561 41.0493 59.8858 40.3516 57.9274 41.3441C57.9205 41.3475 57.9135 41.3512 57.9067 41.3548L57.0396 41.8216C56.0056 40.946 54.7266 40.4108 53.3772 40.2889C52.0277 40.167 50.6735 40.4643 49.4993 41.1403L44.8303 43.6796H38.6175C37.2722 43.6778 35.9446 43.3736 34.7327 42.7895L33.8781 42.3761C31.4448 41.1921 28.7314 40.7047 26.0382 40.9677C23.345 41.2308 20.7772 42.234 18.619 43.8663C18.5987 43.8818 18.5789 43.8973 18.56 43.9148L16.4965 45.7517C15.7167 46.4443 14.795 46.9581 13.7958 47.2572L12.6239 43.4102C12.5658 43.2198 12.4481 43.0531 12.2881 42.9346C12.1282 42.8161 11.9344 42.7522 11.7353 42.7522H1.75585C1.62437 42.7522 1.49438 42.7801 1.37448 42.834C1.25458 42.888 1.14751 42.9668 1.06034 43.0653C0.973166 43.1637 0.907886 43.2795 0.868812 43.4051C0.829737 43.5306 0.817759 43.663 0.833669 43.7936L4.16009 71.0689C4.18755 71.2941 4.2965 71.5015 4.46639 71.652C4.63628 71.8024 4.85536 71.8855 5.08228 71.8855H20.0506C20.1957 71.8855 20.3389 71.8514 20.4685 71.7861C20.5982 71.7208 20.7107 71.626 20.7971 71.5093C20.8835 71.3927 20.9414 71.2574 20.966 71.1143C20.9907 70.9712 20.9815 70.8244 20.9392 70.6855L18.9728 64.233L25.097 60.3622C25.9165 59.9088 26.8778 59.7844 27.7857 60.0143C27.8049 60.0191 27.8243 60.0234 27.8438 60.0268L40.3014 62.3208C43.687 62.9266 47.1775 62.4338 50.2629 60.9143C50.3023 60.8949 50.3403 60.8726 50.3766 60.8478L71.9237 46.0532C72.1189 45.9192 72.2555 45.7157 72.3057 45.4843C72.3559 45.2529 72.3158 45.011 72.1937 44.8082C71.4097 43.5024 70.1522 42.5494 68.683 42.1476C67.2139 41.7459 65.6464 41.9264 64.307 42.6515ZM58.7769 42.9965C59.9095 42.4293 61.3353 42.8943 62.246 43.7634L54.0752 48.1715L53.5952 48.4243C53.3365 47.6897 52.9584 47.0028 52.4761 46.3912L58.7769 42.9965ZM50.3984 42.7666C50.4057 42.7624 50.4139 42.7584 50.4204 42.754C51.1522 42.331 51.9841 42.1121 52.8293 42.12C53.6746 42.128 54.5022 42.3625 55.2259 42.7992L51.0716 45.0359C50.2796 44.4579 49.3759 44.0512 48.4181 43.8417L50.3984 42.7666ZM5.90413 70.0275L2.80515 44.6101H11.0467L18.7961 70.0275H5.90413ZM49.3787 59.2773C46.6659 60.5979 43.6039 61.0233 40.6339 60.4924L28.2068 58.204C26.8399 57.8665 25.3958 58.0622 24.168 58.7513C24.1536 58.7592 24.1392 58.7679 24.1251 58.7769L18.4095 62.3902L14.3374 49.0357C15.593 48.6573 16.7511 48.0097 17.7309 47.1379L19.7652 45.3264C21.65 43.9094 23.8894 43.0401 26.2366 42.8143C28.5838 42.5885 30.9478 43.015 33.0681 44.0467L33.9226 44.4601C35.3869 45.1659 36.991 45.5334 38.6164 45.5356H46.9038C48.1217 45.5373 49.301 45.9631 50.2391 46.7398C51.1771 47.5166 51.8154 48.5957 52.0443 49.7919L46.0375 49.5202C43.8539 49.4221 41.6658 49.5232 39.5005 49.8223C39.2583 49.8582 39.0401 49.9883 38.8934 50.1842C38.7466 50.3802 38.6831 50.6261 38.7167 50.8686C38.7503 51.1111 38.8782 51.3306 39.0727 51.4793C39.2672 51.6279 39.5125 51.6938 39.7554 51.6626C41.8084 51.3789 43.883 51.2831 45.9535 51.3765L53.0225 51.6962C53.0366 51.6962 53.0507 51.6972 53.0646 51.6972C53.311 51.6972 53.5473 51.5993 53.7215 51.4251C53.8957 51.2508 53.9936 51.0145 53.9936 50.7682C53.9936 50.6178 53.9873 50.4689 53.9781 50.3207L54.9475 49.8097L65.1896 44.2859C65.9761 43.86 66.8814 43.7058 67.7646 43.8474C68.6478 43.989 69.4595 44.4183 70.0736 45.0688L49.3787 59.2773Z" fill="#F6B72A" />
  <path d="M8.85741 66.1842C8.85741 66.7627 9.02894 67.3282 9.35032 67.8091C9.6717 68.2901 10.1285 68.665 10.6629 68.8864C11.1974 69.1077 11.7854 69.1657 12.3528 69.0528C12.9201 68.9399 13.4413 68.6614 13.8503 68.2524C14.2594 67.8433 14.5379 67.3222 14.6508 66.7548C14.7636 66.1875 14.7057 65.5994 14.4843 65.0649C14.263 64.5305 13.8881 64.0737 13.4071 63.7523C12.9261 63.431 12.3607 63.2594 11.7822 63.2594C11.0068 63.2603 10.2633 63.5687 9.71501 64.117C9.16669 64.6653 8.85827 65.4088 8.85741 66.1842ZM11.7822 65.1174C11.9932 65.1174 12.1994 65.18 12.3749 65.2972C12.5503 65.4144 12.687 65.581 12.7678 65.776C12.8485 65.9709 12.8697 66.1854 12.8285 66.3923C12.7873 66.5993 12.6857 66.7894 12.5365 66.9386C12.3873 67.0878 12.1973 67.1894 11.9903 67.2305C11.7834 67.2717 11.5689 67.2505 11.374 67.1698C11.179 67.0891 11.0124 66.9523 10.8952 66.7769C10.778 66.6015 10.7154 66.3952 10.7154 66.1842C10.7159 65.9015 10.8285 65.6304 11.0284 65.4305C11.2284 65.2306 11.4994 65.1181 11.7822 65.1177V65.1174Z" fill="#F6B72A" />
  <path d="M43.6403 10.4626V7.40122C43.6315 5.53674 42.8847 3.7516 41.5632 2.43629C40.2418 1.12098 38.4531 0.382568 36.5886 0.382568C34.7241 0.382568 32.9355 1.12098 31.614 2.43629C30.2925 3.7516 29.5457 5.53674 29.537 7.40122V10.4626C29.5457 12.3271 30.2925 14.1122 31.614 15.4275C32.9355 16.7428 34.7241 17.4812 36.5886 17.4812C38.4531 17.4812 40.2418 16.7428 41.5632 15.4275C42.8847 14.1122 43.6315 12.3271 43.6403 10.4626ZM31.395 10.4626V7.40122C31.4025 6.0287 31.953 4.71495 32.9262 3.74706C33.8993 2.77918 35.2161 2.23588 36.5886 2.23588C37.9612 2.23588 39.2779 2.77918 40.2511 3.74706C41.2243 4.71495 41.7748 6.0287 41.7823 7.40122V10.4626C41.7748 11.8351 41.2243 13.1489 40.2511 14.1167C39.2779 15.0846 37.9612 15.6279 36.5886 15.6279C35.2161 15.6279 33.8993 15.0846 32.9262 14.1167C31.953 13.1489 31.4025 11.8351 31.395 10.4626Z" fill="#F6B72A" />
  <path d="M25.2223 36.6479H47.9551C48.2015 36.6479 48.4378 36.55 48.612 36.3758C48.7863 36.2016 48.8841 35.9653 48.8841 35.7189V33.5865H64.4464C64.6927 33.5865 64.929 33.4886 65.1033 33.3144C65.2775 33.1402 65.3754 32.9039 65.3754 32.6575V26.6277C65.3743 24.8584 64.6999 23.1558 63.4889 21.8659C62.278 20.5759 60.6214 19.7953 58.8557 19.6826C58.3602 19.6462 58.1055 19.9599 57.899 20.2118C57.4879 20.7139 56.9677 21.1157 56.378 21.3863C55.7882 21.657 55.1444 21.7894 54.4957 21.7736C53.847 21.7577 53.2104 21.594 52.6345 21.2949C52.0587 20.9958 51.5587 20.5691 51.1727 20.0475C51.084 19.9274 50.9677 19.8305 50.8336 19.7649C50.6995 19.6994 50.5516 19.6671 50.4024 19.6708C49.1956 19.6979 48.0172 20.0417 46.9851 20.6678C46.3037 19.8754 45.4703 19.2279 44.5341 18.7636C43.5979 18.2993 42.5781 18.0275 41.535 17.9645C41.055 17.945 40.8122 18.2364 40.577 18.5219C40.0948 19.1113 39.4844 19.5827 38.7923 19.9004C38.1002 20.2181 37.3447 20.3735 36.5835 20.3549C35.8222 20.3363 35.0752 20.1442 34.3995 19.7931C33.7237 19.442 33.137 18.9413 32.6841 18.3292C32.5956 18.209 32.4793 18.1119 32.3452 18.0464C32.2111 17.9808 32.0631 17.9486 31.9138 17.9526C29.8765 17.9997 27.9392 18.8448 26.5187 20.3061C26.4013 20.4261 26.29 20.5504 26.1815 20.6766C25.2222 20.0926 24.135 19.7513 23.0141 19.6822C22.5203 19.6459 22.2638 19.9595 22.0574 20.2115C21.6464 20.7136 21.1262 21.1153 20.5364 21.386C19.9466 21.6567 19.3029 21.7891 18.6542 21.7733C18.0054 21.7574 17.3689 21.5937 16.7931 21.2946C16.2172 20.9954 15.7173 20.5688 15.3313 20.0472C15.2424 19.9273 15.1261 19.8305 14.9921 19.7649C14.858 19.6993 14.7102 19.667 14.561 19.6705C12.7464 19.7167 11.0216 20.4699 9.75441 21.7696C8.48721 23.0692 7.77786 24.8125 7.7776 26.6277V32.6575C7.7776 32.9039 7.87548 33.1402 8.0497 33.3144C8.22392 33.4886 8.46022 33.5865 8.7066 33.5865H24.2933V35.7189C24.2933 35.9653 24.3912 36.2016 24.5654 36.3758C24.7396 36.55 24.9759 36.6479 25.2223 36.6479ZM50.0057 21.5582C50.5785 22.2083 51.2827 22.7294 52.0718 23.0871C52.8609 23.4448 53.717 23.6309 54.5834 23.6332C55.4498 23.6355 56.3068 23.4538 57.0978 23.1003C57.8888 22.7467 58.5957 22.2293 59.1718 21.5822C60.3799 21.7645 61.4826 22.3737 62.2799 23.2994C63.0772 24.2251 63.5162 25.406 63.5174 26.6277V31.7285H48.8841V25.7689C48.8851 24.5317 48.5908 23.3122 48.0256 22.2117C48.6326 21.8577 49.3072 21.6351 50.0057 21.5582ZM31.5135 19.8388C32.1558 20.5824 32.9503 21.1794 33.8433 21.5893C34.7364 21.9993 35.707 22.2126 36.6896 22.2149C37.6722 22.2173 38.6439 22.0085 39.5388 21.6028C40.4338 21.1971 41.2312 20.6039 41.877 19.8634C43.3035 20.0607 44.6105 20.7672 45.5569 21.8525C46.5034 22.9378 47.0254 24.3288 47.0268 25.7689V34.7899H26.1513V25.7689C26.1605 24.2943 26.7122 22.8748 27.7012 21.781C28.6902 20.6873 30.0473 19.9959 31.5135 19.8388ZM9.6356 31.7285V26.6277C9.64345 25.3761 10.108 24.1703 10.942 23.237C11.7761 22.3036 12.9222 21.7069 14.1651 21.5588C14.7378 22.2087 15.442 22.7296 16.231 23.0872C17.02 23.4447 17.8759 23.6307 18.7422 23.633C19.6084 23.6352 20.4653 23.4535 21.2561 23.1C22.0469 22.7465 22.7537 22.2291 23.3298 21.5822C23.9694 21.6778 24.5849 21.895 25.1429 22.222C24.5828 23.3203 24.2916 24.536 24.2933 25.7689V31.7285H9.6356Z" fill="#F6B72A" />
  <path d="M60.7852 13.2301V10.5504C60.7852 8.88267 60.1227 7.28327 58.9435 6.10403C57.7642 4.92479 56.1648 4.2623 54.4971 4.2623C52.8294 4.2623 51.23 4.92479 50.0508 6.10403C48.8716 7.28327 48.2091 8.88267 48.2091 10.5504V13.2301C48.2091 14.8978 48.8716 16.4971 50.0508 17.6764C51.23 18.8556 52.8294 19.5181 54.4971 19.5181C56.1648 19.5181 57.7642 18.8556 58.9435 17.6764C60.1227 16.4971 60.7852 14.8978 60.7852 13.2301ZM50.0671 13.2301V10.5504C50.0671 9.37544 50.5338 8.24863 51.3646 7.41783C52.1954 6.58703 53.3222 6.12029 54.4971 6.12029C55.6721 6.12029 56.7989 6.58703 57.6297 7.41783C58.4605 8.24863 58.9272 9.37544 58.9272 10.5504V13.2301C58.9272 14.405 58.4605 15.5318 57.6297 16.3626C56.7989 17.1934 55.6721 17.6601 54.4971 17.6601C53.3222 17.6601 52.1954 17.1934 51.3646 16.3626C50.5338 15.5318 50.0671 14.405 50.0671 13.2301Z" fill="#F6B72A" />
  <path d="M24.9439 13.2301V10.5504C24.9439 9.72461 24.7813 8.90693 24.4653 8.14403C24.1492 7.38112 23.6861 6.68793 23.1022 6.10403C22.5183 5.52013 21.8251 5.05696 21.0622 4.74095C20.2993 4.42495 19.4816 4.2623 18.6558 4.2623C17.8301 4.2623 17.0124 4.42495 16.2495 4.74095C15.4866 5.05696 14.7934 5.52013 14.2095 6.10403C13.6256 6.68793 13.1624 7.38112 12.8464 8.14403C12.5304 8.90693 12.3678 9.72461 12.3678 10.5504V13.2301C12.3678 14.0558 12.5304 14.8735 12.8464 15.6364C13.1624 16.3993 13.6256 17.0925 14.2095 17.6764C14.7934 18.2603 15.4866 18.7235 16.2495 19.0395C17.0124 19.3555 17.8301 19.5181 18.6558 19.5181C19.4816 19.5181 20.2993 19.3555 21.0622 19.0395C21.8251 18.7235 22.5183 18.2603 23.1022 17.6764C23.6861 17.0925 24.1492 16.3993 24.4653 15.6364C24.7813 14.8735 24.9439 14.0558 24.9439 13.2301ZM14.2258 13.2301V10.5504C14.2258 9.37544 14.6925 8.24863 15.5233 7.41783C16.3541 6.58703 17.4809 6.12029 18.6558 6.12029C19.8308 6.12029 20.9576 6.58703 21.7884 7.41783C22.6192 8.24863 23.0859 9.37544 23.0859 10.5504V13.2301C23.0859 13.8118 22.9713 14.3879 22.7487 14.9254C22.5261 15.4629 22.1997 15.9512 21.7884 16.3626C21.377 16.774 20.8886 17.1003 20.3512 17.3229C19.8137 17.5455 19.2376 17.6601 18.6558 17.6601C18.0741 17.6601 17.498 17.5455 16.9605 17.3229C16.423 17.1003 15.9347 16.774 15.5233 16.3626C15.1119 15.9512 14.7856 15.4629 14.563 14.9254C14.3404 14.3879 14.2258 13.8118 14.2258 13.2301Z" fill="#F6B72A" />
</svg>