<svg viewBox="0 0 86 41" fill="none" xmlns="http://www.w3.org/2000/svg">
  <path d="M33.0264 20.6431C33.0264 26.0281 37.4068 30.409 42.7917 30.409C48.1766 30.409 52.557 26.0281 52.557 20.6431C52.557 15.2588 48.1766 10.8779 42.7917 10.8779C37.4068 10.8779 33.0264 15.2588 33.0264 20.6431ZM50.0761 20.6431C50.0761 24.6597 46.8083 27.9282 42.7917 27.9282C38.7751 27.9282 35.5073 24.6597 35.5073 20.6431C35.5073 16.6266 38.7751 13.3588 42.7917 13.3588C46.8083 13.3588 50.0761 16.6266 50.0761 20.6431ZM83.568 17.0756C80.5135 14.2607 75.4431 10.1827 68.633 6.73726C60.2994 2.5204 51.6053 0.382568 42.7917 0.382568C33.9781 0.382568 25.284 2.5204 16.9504 6.73726C10.1403 10.1827 5.06995 14.2607 2.01535 17.0756C1.02106 17.9917 0.451233 19.2916 0.451233 20.6431C0.451233 21.9947 1.02106 23.2952 2.01535 24.2114C5.06995 27.0256 10.1403 31.1036 16.9504 34.5497C25.284 38.7659 33.9781 40.9037 42.7917 40.9037C56.3946 40.9037 67.4274 35.6951 74.2873 31.3252C74.8656 30.9569 75.0355 30.1907 74.6672 29.6125C74.299 29.0349 73.5321 28.865 72.9545 29.2332C68.5225 32.0565 62.277 35.2423 54.7006 37.0235C59.7586 33.3364 63.0523 27.3674 63.0523 20.6431C63.0523 13.9137 59.7535 7.94087 54.689 4.25443C68.1129 7.40723 77.7832 15.1186 81.887 18.9001C82.3799 19.3542 82.6513 19.9732 82.6513 20.6431C82.6513 21.3131 82.3799 21.9327 81.887 22.3869C80.549 23.6196 79.0999 24.8348 77.5784 25.9997C77.0344 26.4157 76.931 27.1942 77.3477 27.7382C77.7638 28.2822 78.5423 28.3856 79.0863 27.9695C80.6672 26.7594 82.1751 25.4951 83.568 24.2114C84.5623 23.2952 85.1322 21.9947 85.1322 20.6431C85.1322 19.2916 84.5623 17.9917 83.568 17.0756ZM60.5714 20.6431C60.5714 30.4472 52.5951 38.4235 42.7917 38.4235C32.9883 38.4235 25.012 30.4472 25.012 20.6431C25.012 19.6585 25.0928 18.6707 25.253 17.7081C25.3648 17.0323 24.908 16.3933 24.2322 16.2809C23.5571 16.1691 22.9175 16.6259 22.8057 17.3017C22.6235 18.3987 22.5311 19.5229 22.5311 20.6431C22.5311 27.3732 25.8299 33.3461 30.8944 37.0325C17.4705 33.8797 7.80021 26.1676 3.69641 22.3862C3.20347 21.9327 2.93212 21.3131 2.93212 20.6431C2.93212 19.9732 3.20347 19.3542 3.69641 18.9001C7.79375 15.1245 17.4414 7.42984 30.8343 4.268C28.285 6.13254 26.1601 8.60567 24.6761 11.5614C24.3685 12.1739 24.6153 12.9194 25.2278 13.2263C25.8403 13.5339 26.5858 13.2871 26.8927 12.6746C29.9324 6.6229 36.0248 2.86346 42.7917 2.86346C52.5957 2.86346 60.5714 10.8398 60.5714 20.6431Z" fill="#F6B72A" />
</svg>